<?xml version="1.0" encoding="UTF-8"?>
<svg id="Layer_2" data-name="Layer 2" xmlns="http://www.w3.org/2000/svg" viewBox="0 0 1200 800">
  <defs>
    <style>
      .cls-1 {
        fill: #f3eff1;
      }

      .cls-2 {
        fill: #171716;
      }
    </style>
  </defs>
  <g id="Graphic_Element" data-name="Graphic Element">
    <g>
      <rect class="cls-1" width="1200" height="800"/>
      <g>
        <path class="cls-2" d="m1195.77,244.37c-2.56,4.07-6.15,7.45-7.99,11.99-1.31,2.34-3.82,3.99-3.97,6.98-2.64,1.08-2.62,3.96-3.98,5.9-1.2,1.1-1.88,2.42-1.76,4.08-.53.94-1.42,1.72-1.27,2.95-.57,1.01-1.15,2.01-1.72,3.02-.12.31-.18.63-.19.95-2.06,2.27-2.76,5.07-3.09,8.01-4.92-1.08-8.29-5.1-12.89-6.78-.98-.42-1.96-.83-2.95-1.25-.64-1.81-2.48-2.12-3.87-2.76-6.97-3.2-13.69-7.07-20.14-10.98-12.81-7.77-26.29-14.27-39.13-21.94-13.4-8-27.24-15.28-40.88-22.88h0c-4.32-2.39-8.65-4.79-12.97-7.18-2.02-1.64-4.13-3.08-6.9-3.02-2.42-2.87-5.55-3.47-9.07-2.8.02.3-.05.59-.2.85.08,1.43.79,2.43,2.1,3.01,2.01,1.32,4.45,1.98,6.06,3.91,1.97.72,3.95,1.44,5.92,2.16,3.04,1.89,6.08,3.78,9.13,5.67,1.58.74,3.17,1.47,4.75,2.21-.03.26-.07.51-.13.76,1.1,2.47,3.63,3.34,5.7,4.4,5.44,2.8,10.33,6.84,16.59,7.95.67-.2.92.18,1.06.74,1.28,2.42,3.66,3.16,6.01,3.95.73.21,1.71-.05,1.98,1.03,5.81,4.35,11.65,8.65,18.95,10.25,1.1.5,2.42.61,3.15,1.77,1.71,3.07,4.48,4.2,7.85,4.22,4.02,2.21,8.05,4.42,12.07,6.62,2.13,4.07,6.61,4.73,10.12,6.66,5.88,3.22,11.22,7.52,17.87,9.26,3.55,1.73,6.98,3.64,10.03,6.16,3.31,2.42,6.16,6,11.07,4.48,1.6-.99,1.37-2.54,1.32-4.03.16,0,.33-.07.5-.23,1.69-2.07,2.66-4.42,2.74-7.11.66-.9,1.55-1.7,1.34-2.99.67-1.01,1.34-2.01,2-3.02,1.09-.25.81-1.24,1.05-1.95,1.21-1.08,1.68-2.51,1.94-4.04,1.08-.38.89-1.21.75-2.03,2.01-2.44,3.82-5.01,4.98-7.98,1.1-1.49,2.83-2.69,2.25-4.94,1.61-1.06,3.03-2.3,4-3.99.24-.36.49-.72.73-1.09,1.37-1.06,1.08-3.48,3.22-3.91v-7.98c-2.4.79-2.9,3.16-4.12,4.93Z"/>
        <path class="cls-2" d="m1035.04,490.79c-2.42,4.38-4.85,8.76-4.99,13.96-.8,2.22-1.57,4.45-2.41,6.66-1.35,3.54-2.97,3.72-4.82.33-1.1-2.74-3.23-4.25-6.01-4.98-2.08.07-1.57-2.42-3-3-1.56-2.99-3.86-5.28-6.72-7.03-.76-.98-1.52-1.97-2.28-2.95-3.7-4.31-6.08-9.9-11.88-12.17-1.63.4-3.26.8-4.88,1.2-2.73,1.56-3.42,4.28-4.01,7.05l.03-.03c-3.24,4.48-5.02,9.54-5.99,14.92-.39,1.95-.78,3.9-1.18,5.84-.31.06-.61.12-.92.2-2.77,4.95-4.39,10.25-4.93,15.89-.43,2.65-.86,5.29-1.29,7.94-2.83,2.38-3.49,5.49-3,8.98,0,.66,0,1.32.01,1.98-3.57,6.88-5.16,14.21-4.99,21.94.1.34.21.67.31,1.01-1.11,4.65-2.22,9.31-3.33,13.96-2.21,2.65-3.33,5.53-1.99,8.96.12.32.23.64.35.96-.44.68-.89,1.36-1.34,2.04-1.71,1.76-2.55,3.67-1.03,5.98-.88,3.66-1.76,7.31-2.64,10.97-.26.77-.05,1.8-1.14,2.13-.57.58-.66,1.19-.16,1.86.56,1.31-.46,2.07-1.03,2.99.76,2.06-.99,3.76-.84,5.7.07.82-1.3,1.63.14,2.5,1.7,1.02,1.65-1.22,2.72-1.25.97-3.33,1.95-6.66,2.92-9.99h0c.08-.94.16-1.89.25-2.83,1.03-.36.87-1.33,1.1-2.11,2.68-3.19,3.47-6.9,3.02-10.95.6-3,1.2-6,1.81-9,0,0,0,0,0,0h0c1.13-.7.76-2,1.18-2.99,2.03-1.94,2.22-4.4,1.97-6.98.62-3.32,1.23-6.65,1.85-9.97.39-1,.78-1.99,1.17-2.99-.07-.2-.13-.4-.2-.6.17-.13.36-.25.57-.34,1.89-1.78,1.9-3.89,1.09-6.15.18-.62.36-1.24.53-1.86,2.58-5.02,4.53-10.19,3.99-15.97-.28-3.7,1.67-6.74,2.96-9.97,1.4-1.78,2.24-3.72,1.68-6.05.46-.95-.39-2.38,1.07-2.98,2.49-2.88,3.62-6.17,2.96-9.98.1-.31.15-.62.17-.95.99-2.03,1.98-4.06,2.97-6.09,3.14-3.9,3.62-9.14,6.5-13.67,3.5,3.86,6.55,7.52,9.56,11.22,6.31,7.76,13.88,14.15,21.93,20.01,1.64,1.19,3.3,1.44,5.09.38,1.3.44,2.58-1.13,3.89-.04,2.51-4.74,5.93-9.11,5.95-14.84-.45-1.87.84-2.86,2-3.91,4-8.41,8.12-16.78,9.99-26.01-.48-2.19,1.28-3.39,2.22-4.95,1.29-1.84,2.92-3.54,2.69-6.05-1.43-1.96.98-2.59,1.36-3.92,2.58-2.07,3.37-4.81,3-7.98,1.57-4.01,3.14-8.02,4.71-12.03,3.25-2.93,4.1-6.79,4.3-10.91-.16-.28-.19-.57-.11-.87,1.07-2.33,2.69-4.45,2.74-7.16h0c.12-.31.25-.63.37-.94,2.91-4.26,4.25-9.15,5.7-14,.79-1.6-1.27-3.34.23-4.91.26-.02.53-.04.79-.08-.01-.27-.03-.53-.04-.79.52-.07.74-.72.97-1.21-.75-5.01-2.62-6.19-7.66-4.88-.03,1.48-.74,2.49-2.09,3.07-.89.66-1.01,1.6-.97,2.61-.11.4,0,.83.21,1.26-.84,1.43-1.46,2.93-1.18,4.69-.09.07-.18.14-.27.22-2.32,3.73-1.93,8.53-4.74,12.07-.66.47-.74,1.11-.53,1.83.14.2.28.37.43.53-.04.16-.05.32-.04.48,0,0,0,0,0,.01-.13-.07-.27-.15-.4-.22-3.08,1.98-3.55,5.04-3.44,8.33-3.18,9.54-6.34,19.08-11.08,28-.74.44-1.01,1.09-.89,1.93.08,2.6-1.75,4.55-2.32,6.93-2.38,1.74-3.55,3.99-3,6.98.23.67-.17.91-.72,1.04-2.38,3.27-4.7,6.56-4.23,10.92.17.67-.22.91-.77,1.04Z"/>
        <path class="cls-2" d="m1120.07,672.25c-.33-.66-.67-1.33-1-1.99.17-6.78-4.08-10.64-9.24-13.89-3.1-6.18-8.71-7.65-14.96-7.93-1.52,1.05-3.22.97-4.93.78-2.38-1.48-4.75-1.52-7.11.05-.96.39-1.92.77-2.88,1.16-4.12.53-5.83,3.45-6.93,6.97-3.78,2.65-6,6.18-6.17,10.86-.47,2.05-.59,4.2-1.82,6.03-1.4,2.26-1.53,4.57-.28,6.94l.24,5.82c.01,2.91,1.12,5.32,2.91,7.62,7.73,9.94,18.63,11.28,30.03,10.98,3.05-.08,6.4.03,8.98-2.32,1.6-.86,3.02-2.12,4.96-2.27,1.9-.61,2.61-2.12,2.92-3.91.33-.33.67-.67,1-1,2.23-1.78,3.98-3.78,3.28-6.94,2.15-3.39.13-7.53,1.99-10.97,1.46-2.29,1.25-4.31-.99-5.98Zm-21.33,24.23c-6.35,1.25-12.27.02-17.94-2.7-5.55-2.67-8.64-7.03-8.69-13.38-.02-2.3.78-4.63-.22-6.9-.35-.43-.51-.81-.56-1.17.31-.43.59-.87.59-1.39.21-.2.45-.39.73-.58,4.05-6.64,7.63-13.66,14.6-17.93,0-.02,0-.04,0-.06.14.05.29.05.43-.02,2.98,2.86,6.32,5.07,10.18,6.75,6.96,3.03,11.26,8.81,13.73,15.7,3.53,9.84-2.57,19.66-12.85,21.68Z"/>
        <path class="cls-2" d="m85.14,102.7c2.07,1.77,4.31,2.63,6.96,1.28,4.68-.21,9.41.45,14-1.02,7.24-1.29,11.78-6.21,15.65-11.87,1.86-2.71,3.8-5.58,2.5-9.22,0-1.33,0-2.66,0-3.99,2.35-3.99-.22-10.56-5.15-13.13-2.57-1.84-3.16-5.38-6.01-6.98-5.05-2.43-10.45-3.47-16-3.83-3-1.8-6-1.22-9,0-1.71-.07-2.92.91-4.1,1.94-1.72.49-3.68.66-3.98,3.01-.35.32-.7.64-1.05.95-2.43.87-3.44,3.12-4.88,4.96-6.47,9.25-4.43,22.82,1.14,30.97,2.67,3.22,6.87,4.24,9.92,6.91Zm-7.41-35.18c-.08-.25-.18-.46-.29-.65,3.04-.63,4.52-2.78,5.34-5.6-.02-.06-.04-.12-.06-.18,1.3.1,2.4-.06,2.25-1.84,0,0,0,0,.01,0,.3-.3.38-.64.25-1.02,3.05-.08,5.42,3.8,8.83,1.57.13.17.23.38.26.65,3.2,2.19,7.18.9,10.57,2.26,11.23,4.51,16.42,14.71,9.81,24.88-5.77,8.88-14.43,11.51-24.85,8.62-8.66-2.4-13.51-8.94-13.53-17.9,0-3.69,1.28-7.16,1.42-10.8Z"/>
        <path class="cls-2" d="m119.09,120.64c-2.32,1.08-4.64,2.16-6.96,3.24-1.45,1-2.95,1.93-4.33,3.01-8.58,6.68-13.43,19.54-2.05,29.4,6.38,5.53,13.22,7.92,21.27,8.16.14-.57.46-.84,1.07-.63,2.7,1.63,5.01,1.16,6.95-1.27,2.83-2.45,5.92-4.65,7.93-7.91,2.7-1.13,3.48-3.62,3.7-6.07.49-5.6,3.04-11.31-.42-16.82-1.43-2.31-2.86-4.63-4.28-6.94-4.61-5.76-14-7.47-22.88-4.16Zm18.24,7.51c1.18.7,2.12,1.64,2.82,2.82.98.98,1.65,2.14,2.02,3.47.99,1.87,1.44,3.9,1.35,6.06-.19,1.39-.37,2.79-.56,4.18-.73,2.65-2.31,4.86-4.05,6.94-.21.26-.44.46-.69.68-1.09.95-2.37,1.96-3.6,2.72-1.47.91-3.16,1.58-4.84,2-1.84.46-3.5.64-5.16.64-1.02.2-2.06.31-3.13.31-1.39-.19-2.79-.37-4.18-.56-4.01-.91-7.24-3.87-9.4-7.23-2.15-3.34-2.62-8.36-1.59-12.12.97-3.53,3.84-7.75,7.23-9.4,4.7-2.29,8.94-3.77,14.23-3.9,3.49-.08,6.84,1.29,9.53,3.38Z"/>
        <path class="cls-2" d="m1143.57,549.05c-6.86,2.76-13.86,5.49-19.49,10.6-1.76,1.77-3.54,3.5-6.18,3.86-6.51,1.93-11.75,6.05-17.18,9.86-.13.6-.37.96-.69,1.18-.29.03-.56.09-.78.28-.4.05-.85.02-1.29-.02-7,3.01-13.92,6.15-18.84,12.32-.06.2-.1.41-.14.62-.69.29-1.37.58-2.06.87h0c-.67.35-1.34.71-2,1.06-1.2-.58-1.9.27-2.66.93-1.1.65-2.2,1.31-3.29,1.96-.03.22-.05.44-.06.66-.14-.11-.29-.2-.48-.26-6.39,2.51-12.43,5.61-17.35,10.54l-4.14,2.79c-7.05,1.94-13.01,5.64-18,10.95-.98.44-1.96.88-2.95,1.32-3.11.33-5.37,2.44-7.78,4.03-5.41,3.57-11.49,6.15-16.16,10.82-1.15,2.75-4.75,2.43-6.15,4.87-1.13.95-2.43,1.35-3.9,1.25-2.16,3.76-6.8,3.82-9.75,6.41-.21-.05-.43-.11-.65-.17-5.43,2.27-10.72,4.78-14.66,9.38-5.32,3.41-10.64,6.83-15.96,10.25-.18.27-.25.55-.22.85-1.72.05-2.62,1.19-3.47,2.38-.17-.06-.35-.11-.56-.12-2.2-.05-3.64,1.14-4.74,2.9-1.12,1.9-2.97,2.59-4.99,3.03-2.65.38-4.6,1.78-5.97,4.04-.82,1.71-2.79,1.8-4.05,2.88-.58,0-1.04.27-1.45.66-.11.1-.22.18-.33.25-.26-.03-.51-.01-.72.09-.08-.03-.16-.05-.24-.1-.64-.65-1.23-1.38-2.22-1.53-.06-.81-.56-1.44-1-2.1.03-.03.06-.06.1-.09.21-.43.21-.86-.02-1.29-.26-1.82,0-3.86-2-4.99-.29-1.51-.76-2.9-2.24-3.69-1.77-1.32-.27-3.94-2.08-5.24-.95-2.49-3.55-4.06-3.88-6.9-.28-.07-.56-.12-.85-.15-.07-.64-.14-1.28-.21-1.93-.24-.24-.48-.47-.72-.71.16-.26.3-.54.38-.86.1-1.65-.77-2.6-2.24-3.13-.1-.02-.19-.03-.29-.04-.03-.41-.09-.82-.39-1.09.09-.18.16-.38.19-.63.09-1-.07-1.9-1.02-2.48-2.62.61-1.08-3.68-3.67-3.1,1.73-1.84-1.04-2.54-1-3.95-1.43-2.31-2.86-4.63-4.29-6.94-2.28-4.02-4.55-8.03-6.83-12.05h0c-.38-.97-.76-1.94-1.13-2.9-.31-.07-.6-.03-.89.1-1.36-3.36-2.73-6.73-4.09-10.09-1.3-2.03-3.61-3.38-4.07-5.97.18-.15.35-.31.53-.51-1.52-5.63-3.4-11.08-7.61-15.39-2.04-2.77-3.37-5.89-4.59-9.07.59-1.02.31-1.76-.71-2.28-.19-.01-.37,0-.55.03-.17-.18-.34-.35-.51-.53.11-.19.21-.39.28-.6.46-2.11-.67-3.11-2.52-3.62-.18-2.18-.22-4.41-2.09-5.99-1.14-1.09.16-3.39-2-3.97-.3-.66-.61-1.32-.91-1.98-.03-2.83-1.68-4.89-3.33-6.95-.29-.58-.58-1.16-.87-1.74.13-.1.25-.2.38-.33.58-1.66.06-2.91-1.39-3.84-1.16-.36-.99-1.24-.82-2.11.48-3.12-1.74-5.2-2.92-7.69-2.76-5.82-6.8-11.04-8.32-17.46,3.6,2.69,7.27,5.29,10.69,8.19,2.4,2.03,4.15,1.25,5.55-.77,1.61-2.33-.25-3.72-1.96-4.97-1.4-1.03-2.81-2.06-4.21-3.09-1.63-1.05-3.26-2.09-4.89-3.14-.03-.32-.09-.62-.17-.93-2.22-3.28-5.27-5.48-8.96-6.85-1.02-.71-2.03-1.42-3.05-2.13-2-4.14-4.27-4.51-6.89-1.13-1.62,1.31-.3,2.72-.13,4.09-1.6,2.33-1.6,4.66,0,6.98.1,1.99.21,3.98.31,5.98-.11,1-.22,2-.33,3-1.4,2.18-2.42,4.41-.98,6.98,0,.66,0,1.33,0,1.99-1.87,1.98-2.7,4.26-2,6.98.02.67.05,1.33.07,2,1.36,3,2.65,1.92,3.92-.06.26-2.42,2.17-4.37,1.94-6.93,0-.66,0-1.32.01-1.98,0-.66,0-1.32.01-1.99l.3-.96c.28-.05.56-.1.84-.16,1.82-3.16,1.92-3.95.3-5.58,1.08-.6,1.3-1.86,1.95-2.87,1.95,2.28,2.06,5.73,4.96,7.26,1.23,2.43,2.45,4.87,3.68,7.3-.17,3.67,1.95,6.31,4.06,8.96.23.25.36.55.39.89-.34,1.92.68,2.98,2.33,3.63.11.05.23.1.34.16,0,2.04,1.23,3.62,2.21,5.29-.92,1.95,1.7,2.42,1.67,4,.42.97,1.63,1.67,1,2.99.12.32.25.64.37.95.73,1.53,1.07,3.26,2.2,4.57-.06.16-.13.31-.19.48.75,4.34,1.7,8.59,4.98,11.87.3.34.61.69.91,1.04.71,6.54,3.49,12.24,7.16,17.58-.36.93.13.93.82.71.25.72.77,1.27,1.55,1.64-.07.37,0,.72.18,1.06.15.31.3.62.46.93-.13.35-.26.7-.38,1.05.1,3.87,2.13,6.72,4.88,9.19.17-.06.33-.1.48-.14.26.94.52,1.88.78,2.81.27.07.55.12.84.15.44.97.88,1.94,1.31,2.91,1.22,2.35,3.04,4.38,3.66,7.04-.17,1.52,0,2.82,1.87,2.98-.78,2.11.47,3.16,2.12,4,.07.62.14,1.24.21,1.86,4.3,3.36,4.5,9.26,8.12,13.04,1.54,3.9,3.49,7.6,5.8,11.1h0c1.14,2.58,3.18,4.8,3.14,7.85.28.04.56.09.84.15.31.31.62.62.94.93.18,1.58.04,3.31,2.03,3.97.07.64.13,1.28.2,1.93.28.04.57.08.85.13,1.06,2.29,2.12,4.58,3.18,6.87.96,1.93.94,4.31,2.7,5.86-.06.08-.14.14-.19.23-1.94,6.11-.55,7.87,5.26,6.65.51-.78.93-1.67,2.09-1.61,2.32.23,4.12-.87,5.84-2.21,2.28-2.17,4.66-4.16,8.09-4.06,1.84-.73,3.63-1.69,5.1-2.93,2.89-2.43,7.05-3.61,8.17-7.86h.36s.43.12.43.12c.34-.36.68-.73,1.02-1.09,1.23.23,2-.69,2.94-1.17,4.53.08,7.08-3.09,9.8-5.98,2.72-1.7,5.44-3.4,8.17-5.09,3.09-1.82,5.62-4.52,9.07-5.78,2.79.63,3.61-2.76,6.01-2.93h0c3.24-1.96,6.47-3.92,9.71-5.88.12.14.26.27.41.39,2.39-.41,4.69-.97,5.67-3.6,1.78-1.46,3.74-2.55,6.03-2.99,12.32-6.29,23.69-14.18,35.69-21.01.75-.43,1.08-1.22,1.42-1.97,1-.67,2.01-1.33,3.01-2,5-.03,8.18-3.64,11.97-6.05.38-.57.77-1.13,1.15-1.7.29-.09.58-.16.87-.23,1.73,0,2.73-.74,2.59-2.6,0-.08-.03-.16-.05-.25.09-.02.18-.06.27-.09.1.16.21.31.34.44,1.84.56,3.17-.14,4.15-1.69.07-.32.08-.62.03-.91,1.05-.39,2.46-.2,2.84-1.72,1.25-.7,2.49-1.4,3.74-2.1.37-.38.74-.76,1.11-1.14h0c1.6.79,2.48-1.28,3.96-.98,2.55-.49,4.4-2.03,6.02-3.94.9-2.3,3.84-1.82,5.04-3.72,4.51-1.08,8.85-2.5,11.95-6.26,1-.67,2-1.34,3-2.02,3.59.71,5.39-2.44,8.06-3.73,1.96-1.44,3.54-3.42,5.95-4.23,4,.21,6.74-1.82,8.87-4.94,1.24-1.85,3.4-1.4,5.12-2.04,3.34-.56,5.93-2.87,9.11-3.87,3.5-1.09,5.1-3.44,3.85-7.29-1.25-3.87-4.55-4.32-7.25-3.23Zm-235.62,111.22h0s.03-.02.04-.03c.02.01.05.02.06.03-.04,0-.07,0-.1,0Z"/>
        <path class="cls-2" d="m101.87,43.78c9.47,2.89,19.09,3.52,28.21-1.68.65-.41,1.3-.83,1.95-1.24.1-.76.22-1.29.99-1.94,3.66-3.11,4.67-7.28,4.11-11.92-.08-.99-.16-1.99-.23-2.98,1.74-6.32-3.08-14.41-10.72-17.98-.7-.64-1.41-1.28-2.11-1.92-.84-1.65-3.72-.61-3.99-3.02h-19c.27.9-.43,1-1,1.21-8.15,3.88-12.97,15.7-10.88,26.05,1.5,7.47,5.32,13.18,12.66,15.42Zm.38-36.65c.7-.63,1.75-1.11,1.92-2.09.16.01.32.01.48.05,1.97.3,3.98.52,5.85,1.2,9.37,3.39,18.35,7.25,20.05,18.79.11.13.22.23.33.34-1.08,1.26-1.12,2.59-.32,3.96-.06.02-.11.05-.17.07-1.87,1.49-2.45,3.93-4.15,5.55-5.72,5.46-24.79,2.32-28.38-4.71-3.63-7.11-1.61-17.73,4.38-23.16Z"/>
        <path class="cls-2" d="m1066.87,733.2c-1-.66-2-1.33-3-1.99-1.85-2.06-3.96-3.59-6.94-3.27-2.34-.99-4.68-1.99-7.01-2.98-4.04-2.76-8.67-1.95-11.68,2.04,0,.03,0,.06,0,.09-1.6.39-2.51,1.68-3.42,2.96-.26.02-.52.05-.79.08-.05.65-.1,1.29-.15,1.94-.62.35-1.24.7-1.86,1.05-.95.72-1.62,1.56-1.4,2.85.02.03.05.06.07.09-1.02.3-.65,1.28-.89,1.96-.55.14-.94.4-.71,1.07-.11.33-.22.65-.33.98-1.32,1.42-.05,3.73-1.74,5.02-.14.33-.12.64.06.95-.09.98-.19,1.96-.28,2.94-1.82,1.83-.58,4.03-.72,6.06,0,1.33-.02,2.65-.02,3.98-.33,4.01,2.48,6.38,4.75,9.03,1.03,1.03,2.07,2.06,3.1,3.08,2.04,1.27,4.07,2.53,6.11,3.8,2.54.6,5.08,1.2,7.61,1.8.34.35.73.72,1.17,1.14,4.52.4,9.23,2.01,13.04-2.07.15-.68-.27-1.73,1.06-1.67,5.11-1.46,6.25-5.72,7.16-10.14.17-2.63,1.67-4.74,2.73-7.03,5.08-7.32,2.26-18.63-5.93-23.78Zm-1.46,21.66c-1.51,4.2-3.66,8.18-4.57,12.6.02.51-.03.95-.13,1.34-.73.55-1.46,1.09-2.19,1.64-.23.01-.47.01-.73,0-.68.22-1.15.64-1.35,1.35,0,.08-.01.15-.02.23-.09.02-.18.05-.27.07-.04-.18-.11-.36-.23-.51-2.35-1.63-4.95-1.09-7.51-.84-.01.01-.03.02-.04.03-3.32-2.27-7.07-3.69-10.78-5.19-.31.17-.65.28-.99.35-1.29-1.29-2.58-2.59-3.87-3.88-.46-1.07-.58-2.34-1.69-3.05,1.38-2.07-.38-3.98-.28-5.99.48-1.95-.32-4.12,1-5.93v-.36s0,0,.01,0c1.48-.91,2.16-2.18,1.8-3.93-.08-.44-.37-.66-.74-.79.47-.92,1.42-1.65,1.16-2.87h-.04s0-.04,0-.06c.25.09.5.14.78.13,2.32-2.85,5.15-5.36,6.24-9.01,7.66,1.28,14.32,4.87,20.4,9.46,4.65,3.5,6.04,9.75,4.06,15.24Z"/>
        <path class="cls-2" d="m467.3,77.78c.96.49.73,1.3.56,2.1-1.66,5.34.53,10.09,2.32,14.9,1.68.98.33,2.76,1.06,3.99.21.68.42,1.37.63,2.05.57,1.2,1.61.96,2.57.99.05.14.09.27.13.42.91,1.39,2.34,1.41,3.52.81,3.06-1.54,6.64-2.21,8.94-5.08,1.14-1.11,2.46-1.43,3.98-.97,8.14-.26,10.1-2.64,8.69-10.55-.28-.29-.58-.54-.88-.8.15-5.74-2.17-11.1-2.66-16.74-.11-1-.21-2.01-.32-3.01,1-1.03-1.36-2.01-.05-3.04-1.2-1.06-.04-3.08-1.63-3.99.44-.83.45-1.61.06-2.35.05-.11.1-.22.14-.34.12-.43.06-.84-.18-1.22,0-.33,0-.66,0-1,1.42-2.6.37-4.84-1.01-7.04l-.31.11h0c.11-1.02.21-2.03.32-3.05l-.4-2.03c.18-4.58-1.27-5.64-5.19-3.71-.95.47-1.81,1.13-2.71,1.7-.92.34-1.54,1.42-2.72,1.11-.71,1.18-2.04,1.28-3.14,1.77-.34.11-.67.21-1.01.32-3.43,1.03-6.84,2.13-9.94,3.99-.88.34-1.75.68-2.63,1.02.25.96.5,1.91.74,2.87-2,2.43-.96,5.25-1,7.93-.29,1.65.76,3.31-.08,4.95.22.03.44.05.66.06-.06.06-.12.12-.17.18-1.27,4.78-1.5,9.42,1.7,13.65Zm3.93-27.72c.96-.29,2.27.4,2.82-1.02.95-.28,2.14.31,2.91-.63,4.73,1.49,7.62-1.27,10.34-4.4l.27-.03s-.03.07-.05.11c-.22,1.21-.67,2.46.22,3.48-.01.01-.02.02-.04.03-.96,1.88-.49,3.57.69,5.16.27.24.56.42.87.51.21.67.43,1.34.64,2.01-.13.12-.26.24-.38.37-1.45,1.82-.91,3.6.09,5.38.1.1.21.19.32.29-.94,1.65-.37,2.99.85,4.2-.18.27-.36.55-.54.86-.61,3.88.86,7.49,1.56,11.18.28,1.5-.28,3.71,2.07,4.26-.13.1-.26.19-.39.31,0,4.88-2.13,7.79-7.27,8.38-1.74.2-3.42,1.19-4.99,2.11-2.4,1.4-3.38.76-3.97-1.99-1.62-7.56-3.44-15.08-4.03-22.82-.17-2.2-.38-4.47-2.15-6.12.65-.75.73-1.49.23-2.24.2-.34.39-.71.58-1.16.46-2.39.27-4.61-1.69-6.37-.4.1-.76.03-1.11-.12.94-.33,2.23-.26,2.16-1.76Z"/>
        <path class="cls-2" d="m642.84,51.78c-.28-.18-.51-.42-.71-.69.29-.56.64-1.12.58-2.08-.53-7.98-2.15-15.89-1.89-23.93-1.77-1.4-.24-3.46-1.03-5.06,1.02-2.44-1.39-4.55-.66-6.97.8-1.04.99-2.18.57-3.43-.32-.35-.61-.63-.88-.87-.21-.93-1.6-1.75-.29-2.83-.24-.62-.48-1.24-.73-1.87.4-.99,1.42-1.73,1.19-2.97h-6c.5,1.31-.78,3,.85,4.06.1,1.62.21,3.23.31,4.85t0,0h0c-.01.69-.02,1.38-.03,2.06-.1,2.07-.62,4.21,1.03,5.98-.83,5.66.72,11.18,1.29,16.72.42,4.06-.47,8.33,1.45,12.21-.28.9-.96,1.91-.76,2.69,1.87,7.44.9,15.22,2.76,22.67.25,1.02,1.22,3.21-1.28,3.5-7.12.83-14.18,2.2-21.4,2.06-1.72-.03-1.96-.71-2.31-2.28-.71-3.24-.31-6.69-1.78-9.78.72-2.35,1.39-4.7-.07-7.02-.18-1.29.82-2.58-.04-3.86-.02-6.34.68-12.73-1.2-18.96.56-4.51-.23-8.82-1.97-12.98.9-3.46-.97-6.64-1-10,.33-4.12-1.04-7.99-1.83-11.94h-3c-.19.38-.38.76-.57,1.14-1.75,3.5-.28,6.7.92,9.93.2.15.41.29.61.41-.31,1.45,1.37,2.91.19,4.36,1.49.66.55,2.14,1.05,3.14,0,5.7.54,11.34,1.75,16.91-.27.02-.54.04-.81.07,1.82,3.88.54,7.95.71,11.93-1,1.74-.64,3.34.54,4.84.12.1.24.18.36.26-.77.31-1.14.88-.88,1.85.63.9,1.35,1.77,1.14,3-2.51,1.92.35,4-.19,5.98-.1.24-.11.45-.03.63-.05.05-.1.1-.15.16-.8.83-1.27,1.69-.14,2.64.25.1.42.19.55.27.02.24.03.47.05.71-.41.32-1.15.6-.77,1-.25.94-.09,1.8.5,2.57.33.66.66,1.33,1,1.99-2.15,3.26-1.42,6.66,1.04,8.9,2.56,2.34,6.05,1.81,9.09-.04.66-1.7,1.34.54,2,0,6.32.96,12.31-1.05,18.39-2.14.81-.15,1.33-.91,1.5-1.79,1.88-1.12,2.36-2.82,2.79-4.93.58-2.81-.97-5.3-.49-7.98,1.41-5.21.66-10.23-1.32-15.14Z"/>
        <path class="cls-2" d="m513.17,31.02c-.52,2.72.19,5.34.66,7.98.12.65.25,1.31.37,1.96.24,1.02.47,2.04.71,3.06.08.32.18.63.28.94,0,1.01-.01,2.02-.02,3.03,1.3,4.22.18,8.82,2.03,12.96,0,.99,0,1.98,0,2.97.33,2.33.65,4.65.98,6.98h0c-.1.34-.2.67-.31,1.01.13.96.25,1.93.38,2.89.25.02.5.05.75.1-.11.05-.23.11-.36.19-1.37,5.07-1.46,10.03,1.21,14.77l.43,2.88c.61,2.33,2.55,2.28,4.3,2.19,2.61-.14,5.14-.76,7.39-2.19.13-.55.38-.93,1.04-.72,1.33.84,2.59,1.02,3.72-.1.1.11.2.22.32.32,3.34-.3,6.96,1.76,9.96-1.22,2.64.06,4.14-1.61,3.88-3.85-.72-6.11-1.89-12.17-2.88-18.26.9-2.01,1.95-4.02.09-6.08,1.25-2.65-.46-5.25-.1-7.89,1.94-1.37-1.19-3.54.78-4.9,1.18-8.54-.29-16.99-.87-25.46-.05-.68-.58-1.14-1.22-1.42-.64-3.21-2.84-5.03-5.67-6.27-3.73-2.2-7.55-1.53-11.39-.34-.05.2-.07.39-.1.58-.08.02-.16.03-.24.05,0-.05-.02-.11-.03-.16-.38-.31-.79-.36-1.24-.14-2.43-.68-4.36,1.59-7.09.74-5.74-1.79-9.2,1.21-8.8,7.15.14,2.09.69,4.16,1.05,6.24Zm4.32,2.03c1.05-7.52,1.06-7.57,9.12-7.37,2.62.06,4.85-.58,6.63-2.54,0-.08,0-.14,0-.21.61-.02,1.22-.03,1.82-.05.03-.02.06-.04.09-.06.12.34.26.67.48.95,4.06.7,5.09,3.4,5.09,7.13,0,6.05-.44,12.14,1.02,18.11.06.06.11.12.17.18-.79.6-.78,1.69-.69,2.6.38,3.67-.04,7.44,1.29,10.99.22.28.47.49.74.65-.03.82-.06,1.64-.09,2.45,0,1.03,0,2.06,0,3.09.07.04.12.06.18.09-.26.25-.58.44-1.01.5-.6,2.45-.27,4.89.07,7.35.98,6.98.96,6.98-5.89,8.3-.28.27-.48.54-.65.82-.19,0-.38,0-.57,0-.05-.13-.11-.27-.19-.39-1.01-.74-2.14-.61-3.29-.5q-5.87.56-7.27-4.92c-.23-.13-.44-.28-.63-.44,1.84-2.2,1.2-4.3-.39-6.36-.18.06-.34.09-.49.1-.63-4.87-.69-9.83-2.27-14.55-.55-3.02.5-6.32-1.66-9.05-.09-2.98-.18-5.95-.27-8.93l-.79-1.57c.21-.22.41-.45.55-.72.2-2.01,1.14-4.21-1.21-5.57.03-.03.06-.05.09-.08Z"/>
        <path class="cls-2" d="m1162.29,20.65c4.11-2.64,4.43-.01,5.55,2.4-.04,5,2.57,9.32,3.74,14.02,2.45,9.92,5.74,19.62,8.27,29.52,3.07,11.99,5.75,24.08,8.51,36.15,1.93,8.46,3.73,16.96,5.55,25.45,2.03,9.48,4,18.98,6,28.47v-30.91c-.16-.06-.43-.09-.45-.17-3.23-15.88-7.7-31.45-11.5-47.18-3.13-12.94-6.75-25.74-10.56-38.49-1.79-5.99-2.9-12.18-5.7-17.84.79-1.57-1.2-2.6-.76-4.18,1.26-4.53.52-4.92-4.15-4.23-7.07,1.04-13.85,3.29-20.85,4.57-3.18-.12-6.02,1.31-9.02,2-9.46,1.33-18.73,3.5-27.98,5.84h0c-15.4,2.93-30.45,7.1-45.04,12.87-1.03.25-2.4-.45-2.96,1.08-1.65.65-3.29,1.32-4.95,1.93-1.66.61-2.55,1.92-1.85,3.43.75,1.62,2.39,1.45,3.86.69,1.3-.67,2.59-1.36,3.89-2.04.12.34.25.69.37,1.03-.06.63-.12,1.25-.17,1.88.03,1.03.05,2.07.08,3.1-.03,4.72.25,9.39,1.97,13.86,0,1.02-.02,2.04-.02,3.06.34,1.64.67,3.29,1.01,4.94l-.32,1.02c.21.38.42.76.63,1.14-.15.25-.33.5-.52.75-.55,1.91-.48,3.66,1.24,5.01,1.1,1.87,1.3,3.98,1.62,6.06-.24.35-.27.7-.05,1.07.14.12.25.25.33.38-.07.42-.08.82.12,1.14-.11.48-.33.97-.3,1.45.35,3.49.52,7.04,3.12,9.82,2.29,1.85,1.02,5.15,2.93,7.15l1.15,5.88c.34.35.69.7,1.03,1.05.18,2.65,1.81,4.72,2.81,7.04,1.02,2.96,1.56,6.09,3.89,8.54.38.4,2.77,2.17.14,3.34-3.67-1.94-7.33-3.87-11-5.81-2.01-1-4.02-1.99-6.03-2.99l-2.97-1.34c-1.46-.56-3.25-1.74-4.39-.32-1.34,1.67.19,2.64,1.71,3.6,1.94,1.22-1.05,2.39-.36,3.75-.28.08-.56.14-.84.17-5.14,5.65-7.47,12.46-8.28,19.9-.66,1.33-1.32,2.66-1.98,3.99-1.17,4.82-4.6,8.83-4.96,13.93-1,2.33-2.01,4.65-3.01,6.98-1.11,1.13-2.03,2.34-1.7,4.07-2.22,4.81-4.3,9.68-5.35,14.91.21.66-.17.9-.71,1.04-.06,1.28-.11,2.57-.17,3.85-1.24,2.84-2.2,5.68-.22,9.11,1.58-2.54,2.88-4.55,3.11-7.04,2.75-7.62,5.5-15.23,8.25-22.85,2.23-2.23,2.58-5.31,3.66-8.06,3.61-8.51,7.99-16.81,10.47-25.64,1.15-4.09,5.28-7.32,3.82-12.13,2.17-.58,1.28-3.29,2.94-4.23,2.53,1.6,4.85,3.61,8,3.95,4.12,1.83,7.47,5.12,11.95,6.26,1.22,1.53,2.18,3.4,4.16,4.05,10.51,3.43,19.54,9.85,29.42,14.55,7.6,3.62,14.95,7.75,22.41,11.66,11.02,5.77,22.04,11.55,33.06,17.33,8.63,4.77,16.85,10.27,25.98,14.13v-5.98c-6.68-2.27-12.53-6.28-18.95-9.09-7.46-5.3-15.79-9.03-23.86-13.22-11.58-6.01-23.08-12.19-34.67-18.18-10.56-5.46-21.18-10.82-31.86-16.05-1.63-.8-2.43-2.11-1.48-2.97,2.06-1.85.72-3.28-.05-4.72-1.58-2.95-3.37-5.79-5.08-8.68-1-2.65-1.99-5.3-2.99-7.95.26-1.25-.81-1.96-1.21-2.94-.28-4.73-2.55-8.92-3.86-13.35-4.42-14.89-7.1-30.09-9.12-45.43-.01-1.68-.03-3.36-.04-5.04-.31-.64-.62-1.29-.93-1.93.05-.64.11-1.28.16-1.92,6.4-1.96,12.8-3.92,19.2-5.88v.02s.01,0,.01,0h0s0,0,0,0c7.55-.63,14.51-3.61,21.77-5.4,10.78-1.29,21.34-3.72,31.91-6.12,4.37-.85,8.74-1.7,13.11-2.55,3.5-.42,7.68.21,10.35-1.5Z"/>
        <path class="cls-2" d="m877.96,751.76c-.09.05-.18.1-.27.15-2.31-3.51-3.8-7.64-7.74-9.88-.32-.33-.64-.65-.96-.98.13-2.1-1.96-2.03-2.97-3.02-.05-.59-.1-1.18-.15-1.77-.99-.43-2.44.36-3.03-1.14-.29-.04-.57-.1-.85-.16-2.11-1.53-4.47-2.41-7.05-2.7-4.16-.69-1.9,3.88-4.01,4.87-4.35.07-7.47,2.83-10.87,4.97-3.83,4.1-7.81,8.11-9.14,13.85-1.05.32-.75,1.36-1.09,2.06.1.34.2.67.31,1.01,0,1.98-.01,3.96-.02,5.93,0,.35,0,.7,0,1.05h0c0,.64,0,1.28,0,1.92,2.43-.2,1.67,4.44,4.81,3.16l.85,1.89c1.21,2.01,3.9,1.35,5.34,2.94.82,2.36,3.15,2.52,4.96,3.45.24.46.44.93.54,1.41,1.03,1.04,2.15,1.09,3.35.31,5.33,1.59,10.66,1.26,16,.03,4.01-.22,7.35-1.38,8.38-5.85-.01-.04-.03-.08-.04-.12.18.05.34-.04.49-.26.11-1.17.29-2.27,1.91-2.01,1.05-.54,1.04-1.41.7-2.36-.1-.15-.22-.3-.35-.45,0,0,0,0,0,0,0,0-.01,0-.02-.01,0,0-.01-.01-.02-.02v-.07c.17.16.37.31.59.45,2.66-.44,2.87-2.27,2.52-4.42-.09-2.32-.18-4.63-.28-6.95,1.41-2.96.54-5.32-1.9-7.28Zm-44.8,2.81s0-.09,0-.14c.01.04.03.08.04.12-.02,0-.03.01-.05.02Zm36.94,14.71c-.21,0-.42,0-.65.03-.81.25-1.57.61-2.18,1.18-4.71,4.4-10.06,4.43-15.8,2.52-2.01-.67-3.87-2.05-6.18-1.53-.17.17-.31.33-.44.5-1.97-2.58-5.08-3.71-7.44-5.79.03-.12.06-.24.07-.37-.15-.8-.49-1.41-1.21-1.68.1-.11.21-.22.31-.34.58-2.59,1.96-5.16.76-7.79.1-.1.2-.19.3-.3,3.64-6.2,9.13-10.54,14.81-14.69.03-.11.04-.22.06-.32,1.8-.34,3.84,1.14,5.45-.62l.47-.04.46.07c1.39,1.71,2.82,3.35,5.01,4.09.34.32.69.63,1.03.95.04.31.11.61.23.91,2.31,2.97,4.61,5.94,6.92,8.91-.22.23-.42.49-.59.78.78,4.65-.39,9.09-1.38,13.55Z"/>
        <path class="cls-2" d="m565.64,49.21c.4.31.37,1.17.54,1.77.03.01.06.03.09.05-.24.04-.49.12-.76.27-1.09,7.3-.67,14.5,1.34,21.61.03,2.99.06,5.98.08,8.97-.83,5.53.13,8.11,4.15,8.91,4.28.85,8.77,1.5,12.81-1.21.73-1.27,2.12-.37,3.07-.93,3.14.27,5.93-.49,8.21-2.77-.11-1-.22-2-.33-3,1.5-4.92-1.11-9.34-1.72-14,0-2.64,0-5.28.01-7.93-.47-.96.52-2.45-1.07-3.01-.08-.32-.06-.63.07-.94,1.48-1.67-.47-3.32-.02-4.98.34-.35.68-.69,1.03-1.04-1.11-1.17-1.56-2.66-1.08-4.09,1.29-3.89-.83-4.86-4.04-5.05-3.57-1.54-7.3-.62-10.97-.66-2.02.02-4.03.03-6.05.05-1.64,0-3.28-.01-4.92-.02-2.74,2.53-4.15,5.1-.43,8.03Zm26.8,31.73c-.06.17-.11.32-.15.47-.16-.3-.29-.52-.41-.7.4-.07.67-.06.56.23Zm-21.01-32.6c-.03-.12-.11-.23-.19-.34.59-.04,1.18-.08,1.77-.12l2.11.12c.39.21.79.39,1.09.67.7.24,1.52.9,1.77-.29.84.53,1.86.88,2.73.62,4.17-1.27,5.77,1.04,6.66,4.5.09.07.18.13.27.19-.12.36-.24.72-.37,1.07-.16.06-.33.14-.5.25-.29.68-.29,1.29.27,1.78-.14.08-.28.18-.43.31.09,5.11-1.54,10.44,2,15.1.13-.02.24-.06.37-.09.44,2.75-.79,5.7.77,8.32-1.13,1.12-3.29,1.09-3.7,3-.26-.18-.56-.33-.93-.47-.8-.22-1.62-.31-2.45-.32-7.94-.12-7.69-.15-8.65-8.28-.85-7.18-.3-14.54-2.75-21.51-.2.06-.38.08-.56.09,1.83-1.26.66-3.02.73-4.59Z"/>
        <path class="cls-2" d="m836.82,59.88c.44-.97.89-1.94,1.33-2.92.23-.24.55-.41.71-.69.09.01.17.03.26.05,2.33-1.05,3.96-2.61,3.97-5.36.05-1.12.9-1.57,1.73-2.04-.22-1.81,1.61-2.46,2.18-3.82,3.11-3.36,6.11-6.88,10.85-8.06h0c.56,1.27-.77,3.01.99,3.99,1.26,5.42,3.49,10.48,5.8,15.51-.12.19-.24.38-.36.55-.54,3.07.45,5.64,2.58,7.84l9.19,23.9c-.57,1.44-.52,2.68,1.13,3.39.04,0,.08-.01.11-.02.27.55.54,1.1.82,1.65v.98c1,1.17.32,3.04,1.71,4.05.23,2.14.69,4.21,2.02,5.99.03.2.1.38.16.57-.17.16-.33.35-.47.57-.18.7-.14,1.34.58,1.75,1.56,1.13.64,2.67.67,4.05-.68,2.71.15,4.99,1.99,6.98.1.65.2,1.3.3,1.95-1.05,3.44-.17,6.15,3.08,7.93,2.33.72,3.94-.91,5.79-1.76,1.34-2.68,5.49-2.63,5.99-6.13,1.85-1.49,3.86-2.82,5.12-4.92,1.31-1.31,2.63-2.62,3.94-3.93,3.42-1.04,5.05-4.3,7.78-6.19l.33.14c1.95-1.96,3.9-3.93,5.84-5.89,1.37-3.72,5.83-4.05,7.82-7.09,2.5-2.25,5.57-3.9,7.31-6.94,2.87-.13,3.6-3.24,5.87-4.21,1.36-.94,2.71-1.88,4.07-2.82,1.36.08,2.1-.48,1.97-1.92,5.1-2.28,9.68-5.43,14.27-8.54.27.15.57.27.95.35,3.93-.22,6.93-2.23,9.56-4.95.09-.49.03-1.3.29-1.42,13.54-6.46,26.67-13.65,39.49-21.43,1.77-1.07,3.45-4.29,2.32-4.92-4.15-2.31-2.96-6.17-3.2-9.68-.59-8.43-.26-16.93-1.75-25.3h-5c.72,9.96,1.45,19.91,2.17,29.87,0,.7,0,1.39-.01,2.09.1,2.19-.18,3.98-2.69,4.98-2.78,1.11-5.35,2.75-8.03,4.12-7.46,3.8-15.11,7.27-22.32,11.48-5.09,2.97-10.73,5.11-15.14,9.21-3.05.08-4.76,2.49-7,3.98-1.57.68-3.92.3-4.01,2.97-.71.25-1.72-.11-2,.99-3.74.92-6.54,3.22-8.97,6.08-1.35.97-3.24,1.22-4,2.97-2.17-.1-2.86,1.79-4.04,3.01-1.73-.31-1.7,1.77-2.93,2.15-1.14.1-1.72.84-2.06,1.84-1,.97-2,1.94-3.01,2.91t0,0s0,0,0,0c-2.42,2.28-5.62,3.78-7.09,7.02-.3.31-.61.62-.91.93-3.04,1.17-4.91,3.71-6.99,5.99-.33.35-.66.7-.98,1.05-1.02,1.01-2.04,2.02-3.07,3.03-2.31,1.98-4.63,3.96-6.94,5.94l-.97,1.04c-2.83,4.51-4.31,1.45-5.9-1.01h0c.55-3.59-.3-6.88-2.07-9.98.02-.33-.06-.63-.23-.92-.31-1.33-.63-2.66-.94-3.99-1.01-3.01-2.02-6.02-3.04-9.02-2.67-6.95-5.34-13.91-8.01-20.86.15-.62-.2-.9-.73-1.06-1.7-4.34-2.17-9.16-5.19-12.97-.51-2.82-1.51-5.46-2.78-8.01-.09-.33-.17-.66-.26-.99-.35-3.69-3.29-6.46-3.77-10-.34-2.48-1.88-1.65-3.13-1.91,0-.34,0-.68.01-1.03,3.48-3.63,7.53-6.88,10.25-11,2.25-3.41,6.08-5.14,7.84-8.8,1.44-.06,2.5-.58,2.73-2.16.17-.29.27-.6.32-.93,1.57.2,2.37-.77,3.02-1.98,3.54-1.61,5.69-4.98,8.88-7.03h-11c-2.72,2.67-6.96,3.35-9.03,6.87-1.93,2.03-3.86,4.05-5.79,6.08-.15.29-.21.59-.19.91-7.35,6.31-13.91,13.36-19.81,21.03-2.09,2.07-4.48,3.91-5.28,6.95-3.57,2.59-5.34,6.57-7.82,10h0c-2.38,2.98-4.77,5.96-7.15,8.94,0,0,0,0,0,0-2.85,4.39-6.83,8-8.95,12.89-1.28.59-2.13,1.46-2,2.99-1.04.32-.88,1.24-.99,2.02-1.35.56-2.07,1.54-2.08,3.02h0s0,0,0,0c-1.68,2.67-3.35,5.33-5.03,8-.57.12-.94.38-.71,1.05-.24,1.34-2.98,1.9-1.2,3.86-5.06,5.06-6.78,11.97-10.05,18.02-2.72,3.61-4.06,7.91-5.94,11.94-.98-.31-1.79-1.36-3-.73-1.35-.73-1.21-2.86-3.02-3.16-3.35-2.51-6.56-5.28-10.88-6.03-1.47-3.03-4.42-4.31-7.06-5.96-1.33-.95-2.67-1.89-4-2.84-.68-.33-1.36-.66-2.04-.99h0c-.64-.33-1.28-.67-1.92-1-2.49.22-2.17-3.92-4.99-3.19-1.08-1.95-2.9-2.66-4.96-2.98-2.07-2.79-5.42-3.88-7.99-6-.28-1.05-1.16-.95-1.95-1.01-2.05-2.7-5.22-3.63-8.08-5.05-.65-.64-1.29-1.29-1.94-1.93-.35-.32-.69-.64-1.04-.96-.57-1.33-1.51-2.13-3.03-2.07-3.38-2.57.03-3.98,1-5.81,1.28-.57,2-1.51,2-2.94,1.97-.1,3.05-1.07,3.05-3.1,3.29-1.45,5.12-4.31,6.91-7.2,1.11-.89,2.46-1.61,3.3-2.71,6.58-8.58,14.53-15.91,21.74-23.91,2.66-1.1,3.71-3.84,5.76-5.64,8.25-7.24,16.19-14.84,24.24-22.31h0s0,0,0,0c2.99-2.35,5.97-4.71,8.96-7.06h-8c-.49,1.55-2.74,1.27-3.09,2.95-5.74,3.74-9.35,10-15.62,13.13-.18.77-.14,1.68-1.18,1.91-3.61.54-5.6,2.97-7.05,6.03l.02-.02c-2.04,2.27-4.08,4.54-6.12,6.81-8.36,6.67-14.09,15.82-21.81,23.09-.65,1.68-1.74,3-3.29,3.92-.86.45-1.32,1.11-1.13,2.11,0,.02.02.03.03.04-3.31,3.61-6.61,7.22-9.92,10.82-.27.42-.54.84-.81,1.26-.63.34-1.25.68-1.88,1.02.26,1.79-1.75,2.21-2.17,3.59-.83.14-1.85-.07-2.14,1.11-.19.64-.38,1.27-.57,1.91,1.23.71,1.93,2.32,3.67,2.19,0,0,0,0,0,0,1.32,1.32,2.63,2.63,3.95,3.95.15.05.28.09.41.12,1.45.61,1.64,3.07,3.75,2.69.87,2.3,3.17,2.93,4.93,4.19.12.57.38.95,1.05.75,1,.63,2,1.25,3.01,1.88h0c.38.41.75.81,1.13,1.22.91.37,1.82.74,2.72,1.11.05.61.11,1.22.16,1.84,1.98-.22,3.2,1.6,4.99,1.88.98.77,1.96,1.54,2.94,2.32,1.66,1.05,2.9,2.78,5.03,3.07.65.32,1.3.64,1.95.96.36.58.72,1.16,1.08,1.74.65.05,1.3.09,1.95.14,1.95,1.87,4.02,3.47,6.97,3.12,1.06,2.09,3.4,1.71,5.07,2.63,1.9.15,3.49.9,4.72,2.37,2.34,2.77,5.25,4.86,8.2,6.92h0c.34.32.67.65,1.01.97.97.65,1.94,1.3,2.9,1.96,3.2,2.17,6.16,3.5,7.19-2.02.25-.05.51-.08.77-.09.44-.97.87-1.95,1.31-2.92-.05-3.04,3.53-4.72,2.98-7.94,4.48-5.35,6.64-11.97,9.91-17.98h0,0c.7-.67,1.4-1.33,2.1-2-.03-.63-.06-1.26-.09-1.89,1.78-.76,2.17-2.23,2.01-3.97.6-.06,1.2-.12,1.8-.18.09-.97.17-1.93.26-2.9,1.49.12,2.13-.46,1.76-1.9.93-.19,1.77-.52,2.29-1.42-.24-.24-.45-.48-.64-.72h.17c.15-.33.3-.66.45-.99.3-.64.59-1.29.89-1.93.97-1.41,1.94-2.83,2.91-4.24,3.41-4.57,7.31-8.77,10.13-13.76,1.09-.47.97-2.58,2.79-2.06Zm-46.87,67.86s.01-.02.02-.03h0s-.02-.01-.02-.02c0-.02,0-.03,0-.05.02.02.03.05.05.07-.01,0-.03.01-.04.02Z"/>
        <path class="cls-2" d="m822.82,716.17c.77-2.17-.62-4-.96-5.99-1.01-1.01-2.02-2.03-3.03-3.04-.94-5.12-4.7-7.77-8.86-10.06-.3.19-.61.21-.94.08-.44-.9-.92-1.75-2.1-1.79-.34-.34-.68-.69-1.01-1.03-2.11-1.38-4.3-2.5-6.94-2.18-.12-.56-.39-.92-1.03-.77-2.04-.03-4.17-.86-6.01.73-2.01-.75-4.04-2.04-5.92.24-2.07,1.55-4.79,2.29-6.08,4.82-.61.35-1.23.71-1.84,1.06-1.34,1.99-2.68,3.98-4.02,5.97-.05.61-.1,1.22-.15,1.83h0c-1.41,2.93-2.8,5.87-2.8,9.18-.21.29-.42.59-.57.92-.23.71-.16,1.38.27,2,0,1.99,0,3.99,0,5.98.48,4.25,2.04,8.01,5.12,11.07,1.73,4.8,6.59,5.51,10.23,7.82,6.93,2.24,13.85,3.26,20.76-.05.04-.28.09-.56.15-.84,3.7-.52,5.93-3.44,8.77-5.35,1.42-1.88,2.83-3.75,4.25-5.63,2.31-1.36,2.57-3.65,2.74-5.99-.55-.12-.91-.38-.77-1.02,1.45-2.54,1.78-5.19.75-7.97Zm-6.72-9s-.09,0-.14,0c0,0,0,0,.01-.01h0s0,0,0,0h0s-.02-.01-.03-.02c0-.06-.02-.1-.03-.16.06.06.12.12.18.19Zm.95,6.98c-.22.31-.73.37-.79.79-.56,1.46-.49,2.89.24,4.28.13.06.24.11.37.17-1.56,1.63-1.22,3.61-.82,5.61.08.57.57.78.97,1-.06.03-.1.04-.16.07-1.37-.11-1.44.83-1.45,1.81.04.16.1.31.15.46-1.42,1.25-2.85,2.51-4.27,3.76-.13-.09-.26-.18-.4-.3-1.88.15-3.04.98-2.98,2.95-3.62-.51-5.75,2.7-8.84,3.52-.35.3-.7.67-1.05,1l-2.8-.04c-.14-.19-.28-.41-.42-.68-1.07-.54-2.19-.57-3.33-.25-.22.08-.44.18-.64.29-.43-.62-1.11-.56-1.83-.36-.26-.09-.53-.13-.81-.17.04-.17.07-.34.08-.51-2.06-2.52-4.32-4.77-7.62-5.48.02-.07.05-.13.06-.2-2.14-5.4-3.08-11.09-4.12-16.76-.1-.25-.21-.48-.31-.71.54-.92.86-1.88.59-3,.14,0,.26.01.41,0,2.41-3.51,4.32-7.26,5.51-11.36,2.51-.66,5.15-.82,7.58-1.8.15.1.31.2.46.31,2.52.62,4.99.91,7.14-1.03,0-.01,0-.03.01-.04.3,1.31,1.03,1.3,2.02.48,0,0,0,0,0,0-.06.15-.13.31-.24.46,3.36,3.67,7.16,6.73,11.86,8.54.15.02.3,0,.46,0,.02.06.04.12.05.18.05.89.59,1.36,1.23,1.73-.09.25-.15.52-.18.82.22,2.13.94,3.92,3.22,4.67.35-.08.58-.27.72-.55-.06.1-.13.21-.19.31.04,0,.07,0,.11-.01Z"/>
        <path class="cls-2" d="m221.59,500.76c3.94,5.95,10.24,8.06,17.86,5.95,4.02-1.11,8.29-8.04,8.61-13.96.78-2.51,1.16-4.97-.95-7.09.07-1.49-.72-2.41-2.03-2.97-1.41-1.86-1.59-5.04-5.05-4.7-5.96-4.79-10.26-4.28-15.08,1.77-1.58.89-2.83,2.03-3.03,3.97-1.47.62-.58,2.02-.99,2.99.04.13.09.25.14.35-.06-.09-.11-.2-.14-.35-1.44.72-.75,1.95-.72,3.02,0,1.34-.01,2.69-.02,4.03-.5,2.52-.04,4.84,1.38,6.99Zm3.51-11.56c.25-.02.49-.07.73-.16,1.54-1.68,2.3-3.52,1.52-5.69.05.01.09.03.14.04,3.92-1.08,7.39.25,10.81,1.92.23-.05.45-.13.65-.24-.29,1.7.28,2.91,1.87,3.51-.03.05-.06.09-.08.13-.04.94.29,1.62,1.12,1.94-1.32,1.64-1.31,3.82-2.31,5.63-2.88,5.23-8.19,5.56-11.69.7-1.3-1.8-1.29-4.03-2.28-5.91-.23-.24-.45-.38-.65-.46.06-.47.11-.94.17-1.41Z"/>
        <path class="cls-2" d="m6.06,271.44c5.08,3.92,11.29,5.35,17.09,7.68,8.68,5.52,17.78,10.22,26.97,14.85,7.01,3.53,14.17,6.87,20.84,11.15,5.65,3.62,7.68,2.86,10.2-1.74,1.98-1.74.27-4.11,1.03-6.06,1-3.33,2-6.66,2.99-9.99,3.42-3.64,3.64-8.71,5.79-12.93,1.85-3.62,2.13-3.46,5.2-1.03,4.83,3.83,9.12,8.46,14.89,11.05.31.31.61.61.92.92,1.1,1.21,2.13,2.47,3.3,3.61,4.82,4.69,6.99,4.32,10.48-1.69,1.49-1.39,3.42-2.49,3.37-4.93,2.36-1.97,4.65-4.02,6.02-6.85.69-.69,1.37-1.38,2.06-2.07.85-.46,1.71-.9,1.7-2.06.51-.94,1.45-1.7,1.29-2.94,2.31.31,1.91-2.08,3-2.98.33-.33.67-.67,1-1,.93-1.96,4.65-1.7,3.98-4.95.98-.99,1.96-1.98,2.94-2.98.66-.27,1.86.32,1.8-1.11,1.03-2.77,4.26-2.98,5.91-5.03q6.5-4.48,1.34-10.38c-.1-.11-.11-.31-.16-.46-6.41-4.28-9.77-11.56-15.89-16.12-.89-.84-.66-2.43-2.01-2.96-2.37-2.96-4.74-5.91-7.12-8.87-.34-.33-.67-.66-1.01-1-2.23-1.13-2.34-4.25-4.85-5.13-.02-.28-.09-.54-.22-.79,0-.02,0-.04-.02-.05-.31-1.46-1.94-1.23-2.7-2.11-.61-3.33-4.52-4.5-5.14-7.82-.98-.72-1.96-1.43-2.94-2.15.2-1.2-.67-1.96-1.15-2.89-4.31-2.98-6.42-7.84-9.95-11.52-7.36-7.67-14.41-15.62-21.51-23.54-2.78-3.1-4.9-2.74-7.51.37-4.17,4.96-8.93,9.43-13.04,14.43-4.8,5.84-11.64,9.82-15.11,16.83-.69,1.39-1.43,1.13-2.56.18-2.51-2.12-5.37-3.84-7.83-6.01-10.1-8.92-19.85-18.24-30.3-26.72-2.66-2.16-4.5-6.41-9.06-5.96v2.99c9.92,9.66,20.01,19.13,30.17,28.55,9.56,8.87,19.92,16.78,29.28,25.9,3.98,3.88,8.29,7.9,13.52,10.43,1.09,2.87,3.88,4.05,5.93,5.97,1.51,2.95,4.47,4.21,6.99,5.98.1.32.21.63.31.95,1.26,1.02,2.51,2.04,3.77,3.06-.15-.28-.14-.52-.04-.75.03.23.05.47.04.75,3.01.16,3.73,4.26,6.97,4.04,2.58,2.09,2.68,4.19,1.12,7.25-2.72,5.33-4.75,11.02-7.07,16.55-1.31.64-.89,1.87-1.02,2.92-3,7.98-6.01,15.95-9.01,23.93-1.11,1.52-1.8,3.18-1.77,5.09-1.76,2.4-1.16,5.4-2.02,8.02-.11,1.71-.88,2.66-2.51,1.5-13.58-9.63-29.43-15.09-43.62-23.6-.72-1.58-2.52-.8-3.73-1.87-4.58-4.05-10.52-5.34-16.22-7.05-.75-1.79-2.24-2.12-3.96-1.99-2.09-1.84-4.04-3.9-7.13-3.95v6.98c.66.04,1.31.08,1.97.11.79,1.73,2.33,1.98,3.98,1.97Zm99.03,2.9c0,.05-.02.1-.04.15-.02,0-.03,0-.06,0-.05,0-.08,0-.12.01.07-.03.14-.09.12-.19.03,0,.06,0,.09,0,0-.01,0-.03,0-.04.15.08.2.14.17.17-.05-.04-.09-.07-.14-.11Zm22.55,7.93c.45.11.81.16,1.1.13-.4.05-.76,0-1.1-.13Zm-40.3-67.71c.12-.16.26-.32.25-.49.17-.92-.21-1.63-.94-2.19-.17-.08-.34-.17-.5-.26-.06-.57-.11-1.15-.17-1.72.13-.07.26-.14.43-.22.52-.63.89-1.36,1.36-2.02.95.86,2.3,1.19,3.3,1.99.66.65,1.32,1.3,1.98,1.95.74.98,1.48,1.96,2.22,2.94-.37.37-.75.74-1.12,1.11-1.22.01-2.44.02-3.65.03-.03-.07-.05-.13-.09-.2-.35-.28-.75-.42-1.21-.43-.26.01-.53.1-.79.17-.35-.22-.7-.45-1.06-.67Zm10.35,46.83c2.77-6.03,5.88-11.89,8.93-17.78,1.27-2.46,2.7-5.52.35-8.42-.22-.1-.45-.17-.67-.26.11-.89-.29-1.67-.92-2.18-5.16-4.17-10.21-8.54-16.54-10.93.56-.33,1.08-.71,1.5-1.23.03-.09.05-.19.08-.28.57,0,1.14,0,1.71,0,.1-.18.21-.32.33-.45-.07.15-.18.3-.33.45,1.4-.02,3.12,1.67,4.05-.76,2.8-1.06,4.53,1.56,6.89,2-.2,1.57.77,2.34,1.99,2.95.31,1.05,1.27.8,2.01.99,1.12,1.58,1.99,3.46,3.42,4.68,2.05,1.76,1.46,3.54-.3,4.05-2.17.63-2.09,1.5-1.69,3.13.62,2.53,2.82,1.32,3.53.92,4.23-2.33,5.86.95,7.65,3.4.86,1.18,1.8,2.24,2.69,3.36,1.17,1.47,2.61,1.63,3.92,1.13,1.64-.63.06-2.84,1.34-3.88-1.14-.98-2.29-1.96-3.43-2.95-.68-1.47-1.4-9.02-1.12-10.93.09-.63-.11-1.3-.17-1.95-.1-9.17-5.07-14.25-12.9-13.17-.98.11-1.96.22-2.93.33-2.21-2.44-4.67.98-6.93-.28-1.35-1.94-2.95-3.6-5.07-4.71-.37-1.47-1.3-2.23-2.84-2.19-.85-1.16-1.64-2.35-1-3.89,1.46,1.17,2.32.52,2.92-.95,1.33.73,2.97,1.52,3.64-.41.72-2.07-1.63-2-2.71-2.79-1.03-.33-2.02-.36-2.96.28-1.61-.4-2.95-.17-3.77,1.24-.03-.01-.06-.03-.09-.05-.45-.16-.9-.27-1.38-.32-.37-.05-.69-.05-.98-.02-.93-.67-1.86-1.34-2.79-2.01-2.38-2.68-4.22-6.18-8.64-5.9-.14,3.74,3.56,4.4,4.9,6.83,1.58,1.37,3.57,2.59,3.52,4.59-.33.84-.72,1.61-1.47,2.03-1.65,1.39-2.24,3.29-2.06,5.3.14,1.6-.86,1.69-1.79,1.95.26-2.97-2.16-4.21-3.89-5.86-4.8-4.6-10.65-7.95-15.25-12.8-3.51-3.7-3.66-4.64.05-8.06,7.21-6.65,13.68-14,20.1-21.36,2.82-3.24,4.44-2.83,7.05-.04,8.05,8.62,15.87,17.43,23.22,26.65,1.42,1.78,2.69,3.76,5.05,4.35-.27,3.01,2.22,4.16,4.32,5.58.36-.03.64,0,.85.07.02.84.31,1.5.84,1.99.06.4.18.77.52.97.38.57.87.96,1.58,1,.07-.01.12-.04.18-.06.31.45.62.9.94,1.35-.13.29-.25.58-.36.88,2.83,4.68,6.6,8.52,10.88,11.88.43.18.8.41,1.13.67.27.38.59.71.94,1.02.31.45.56.95.72,1.53.61,1.11,1.46,1.88,2.8,1.94.02,0,.03-.01.05-.02.33.63.85,1.08,1.52,1.38-.04.05-.09.09-.12.15-.67,2.13,1.04,3.24,1.97,4.72,3.34,5.3,9.02,8.56,12.23,14-.02.46-.18.84-.39,1.18-1.3.67-2.54,1.41-3.08,2.99-.6,1.78-3.6,1.45-3.44,3.9-1.86,1-3,2.72-4.34,4.25-.23,0-.46,0-.69.04-2.84,1.32-4.76,3.4-5.53,6.43-2.59-.31-2.97,1.92-3.66,3.8.03.17.08.31.13.44-1.42.66-1.76,2.36-2.82,3.36-.41.19-.87.31-1.41.32-.8.47-1.17,1.06-.88,1.85-3.42,1.34-5.42,3.79-5.87,7.45-1.81-.03-2.06,1.45-2.52,2.72,0,.06.01.11.02.17-.04,0-.09,0-.13,0-.12-.27-.26-.53-.42-.77-1.09-1.63-2.41-2.91-4.53-3-.1.01-.19.03-.29.05-.35-1.7-1.4-2.08-2.91-1.62-.9-3.22-2.84-5.47-6.42-6.23-.32.08-.62.16-.89.26-.19-.18-.38-.35-.56-.53.08-.17.15-.33.21-.49-1.91-3.5-5.34-5.32-8.41-7.53.88-.29,1.31-1.15,1.67-1.94Zm9.77-42.73c.88-.18,1.8-.28,2.41-1.03.09.13.2.26.32.38,4.87,1.55,5.97,5.66,7.22,9.68-3.11-.47-4.14-4.25-7.15-4.9.16-2.11-1.39-3.07-2.79-4.12Z"/>
        <path class="cls-2" d="m240.18,431.95c-1.8-8.36-10.95-14.82-19.09-10.84-4.25-.34-7.81,1.36-11.13,3.75-8.58,4.92-9.29,18.06-1.57,24.79,5.71,4.98,11.78,8.35,19.66,6.96,2.9-.7,5.46-2.09,7.85-3.82,5.41-4.82,7.08-10.89,5.98-17.87-.56-.99-1.13-1.98-1.69-2.97Zm-5.42,9.92c-.37.22-.73.46-1.06.77-1.17,1.54-2.06,3.18-2.13,5.17-2.1-.22-3.18.82-3.46,2.84-.92-.85-2.14-.82-3.31-.96-13.18-1.6-17.75-9.45-12.35-21.21-.08-.16-.14-.32-.19-.5,3.46.89,5.94-.87,8.34-2.85,1.71,2.63,4.25,3.41,7.28,3.14.22-.08.37-.23.48-.41.08.02.15.04.23.06,0,.07,0,.13.01.21,1.01,2.99,2.61,5.57,5.19,7.48-.11.87.34,1.64.78,2.4.18.23.38.42.59.59-.13,1.09-.05,2.22-.4,3.27Z"/>
        <path class="cls-2" d="m299.23,710.08c-.64-1.8,1.19-3.17.85-4.92.32-.73.64-1.46.95-2.19,2.04-1.44,1.96-3.62,2.05-5.75l-.18-.17s0,0,0,0c.06.06.12.11.18.17,1.86-3.19,1.46-6.59.97-10h.01c1.29-2.65-.79-5.33.06-7.98-1.22-1.31-1.05-2.95-1.23-4.57-.37-3.29-.61-6.66-2.84-9.41-.53-1.27.55-2.95-1.01-3.96h0c-.99-3.34-1.98-6.68-2.97-10.01-2.42-6.74-3.95-13.83-7.98-19.93-1.47-3.35-3.13-6.57-6.1-8.89-.05.06-.09.13-.14.19,0-.01-.01-.03-.02-.04l.16-.15c-.79-1.24-1.43-2.51-.92-4.04,2.88-4.63,5.89-9.21,6-14.96,1.39-2,1.36-4.01,0-6.01h0c.27-2.8-.52-5.37-1.59-7.87-.03-.36-.14-.71-.46-1.02-1.72-3.14-2.64-7.01-7.08-7.64-.47-1.24-1.54-.8-2.43-.86-.35.16-.68.34-.99.54-.83.02-1.66.03-2.48.05-6.65-1.11-12.79,1.02-18.95,2.99h0c-1.24.3-2.48.61-3.72.91-.68-.65-1.79-.41-2.51-.97-5.27-9-11.36-17.52-15.77-27.02-1-2.01-2.01-4.01-3.01-6.02-4.67-7.63-9.35-15.26-14.02-22.89l-15.02-17.84c-1.09-.93-.68-3.26-2.92-3.12-1.46-1.2-1.73-3.59-4-3.99-.05-.16-.14-.27-.24-.37-.71-1.1-1.62-1.98-2.78-2.62-1.43-2.35-3.66-3.75-6-5.02-.14-.56-.42-.92-1.07-.75-1.91-1.14-2.93-3.86-5.83-3.23-1.87-3.84-6.14-4.51-9.13-6.87-4.48-4.09-9.4-7.53-14.94-10.06-5.01-3.32-10.54-5.55-16.07-7.79-.44-.38-.87-.76-1.31-1.13-6.51-3.64-12.85-7.72-20.67-7.94-5.05-2.58-10.61-2.97-16.09-3.44-6.33-.55-12.52,1.88-18.89,1.25-5.01.67-10.2.03-15.01,2.08-2.98.2-5.92.55-8.66,1.83.14-.04.28-.04.41-.01-.27.03-.54.09-.8.19-3.69-.23-6.92,1.03-9.92,3.04-1.36.95-2.71,1.89-4.07,2.84-.33.06-.64.15-.94.28-10.27,4.58-19.01,11.7-28.67,17.29-1.52.88-2.99,2.28-3.84,3.8-1.76,3.15-4.38,5.12-7.48,6.67v5.98c1.27-.02,1.03-1.6,2-1.92,1.9-.14,3.15-.93,3.04-3.06,6.8-5.56,14.19-10.27,21.47-15.17,4.09-2.75,9.33-3.71,12.44-7.93,1.5-.23,2.85-.79,3.96-1.85h0c.31-.09.4-.29.28-.59,1.49-.35,3.46.23,3.94-2.04,5.97-1.37,11.95-2.73,17.92-4.1,19.87-2.63,39.67-4.13,58.87,3.77.39,2.19,2.09.5,3.04,1.01.55,1.33,2.07,1.19,3,1.96.15.21.36.3.59.33,2.15,1.19,4.3,2.39,6.45,3.58,3.73,1.54,6.61,4.85,10.91,5.19,7.75,5.26,15.49,10.51,23.24,15.77,1.32.67,2.64,1.34,3.96,2.02h0c1.94,1.36,3.88,2.71,5.82,4.07h0c.99,1.03,1.98,2.06,2.98,3.09,2.99,2.7,5.98,5.39,8.97,8.09.68,1.31,1.58,2.42,2.98,3.05,3.35,6.08,8.49,10.7,13.03,15.8-.07.87.3,1.51.81,2.23,4.81,6.8,9.74,13.56,13.18,21.19,5.37,11.89,12.46,22.81,18.98,34.05-1.44.11-2.44.85-3.06,2.14-.74.09-1.62-.1-1.91.92-1.58.58-3.63.86-2.05,3.36.23.7.9,1.32,1.41.88,3.68-3.12,8.51-3.31,12.69-5.13,1.49.1,3.04.55,4.25-.8.21.11.44.16.68.15.52,1.1.84.66,1.11-.15,5.4-2.62,11.33-1.34,16.96-2.28,1.13,1.11,2.46,1.44,3.98,1,3.74.93,2.61,5.29,5.06,7.12.38,2-.42,4.15.76,6.06-.23.64-.47,1.29-.7,1.93.22,4.54-3.24,7.79-4.22,11.91-3.38,3.01-4.24,6.29-1.16,10.06,2.13,2.6,4.21,5.24,6.31,7.86,3.49,6.8,4.82,14.51,8.94,21.03-.01,1.43-.51,2.98,1,4.04-.19,3.98,1.49,7.43,3.1,10.9.59,3.45,1.36,6.86,2.89,10.04.05,3.97.11,7.94.16,11.91v3.99c0,.33,0,.65,0,.98-.52,1.73-2.17,2.99-2.03,4.99-.88,3.82-4.44,6.68-3.97,10.99-.39,2.24.61,3.22,2.83,3.09,0,0,0,0,0,0h0s0,0,0,0l-.02-.05c6.99,6.07,7.29,7.33,3.07,12.9-.92,1.68-1.84,3.36-2.76,5.04-2.23,1.2-3.22,3.61-4.96,5.33-3.29,3.25-7.72,5.66-9.36,10.42-2.08.61-3.78,1.59-3.98,4.04-3.57,3.05-7.62,5.29-11.93,7.1-1.4.25-2.51-.41-3.59-1.16-.42-2.75-3.11-3.83-4.36-5.97,0,0,0,0,0,0-.74-2.03-2.03-2.75-4.07-1.69-2.94.15-5.26,2.08-8.01,2.77-.65.3-1.31.6-1.96.9-1.93-.64-3.43.47-5.01,1.25-3.03-.09-6.04.08-9,.84-5.7-.47-11.32.26-16.94,1.11-.7.06-1.4.12-2.1.18-1.99-.09-3.98-.18-5.96-.27l-2.05.37c-1.97.2-3.93-1.08-5.91-.06h0s0,0,0,0c-1.24-1.79-2.74.18-4.07-.28-3.06-2.01-6.35-3.42-10.01-3.89-2.75-3.75-7.35-4.67-10.96-7.09-1.12-2-2.83-3.2-5.04-3.73-3.69-3.13-6.57-7.8-12.81-5.22-6.98,2.88-14.32,4.93-21.18,8.04-6.49,2.94-12.48,4.57-18.27-.54-.18-.21-.4-.41-.67-.6-1-1.26-1.37-2.27-.09-3.84,3.41-4.2,5.19-9.35,7.06-14.3,1.24-3.27,2.6-6.91.94-10.65-1.72-3.87-5.36-1.32-7.88-2.47-.43-.19-.92-.44-1.35-.4-3.87.37-5.92-4.1-8.75-4.11-4.06-.01-6.73-1.85-9.76-3.66-8.53-5.08-15.65-12.14-23.94-17.43-14.21-9.08-23.07-22.35-31.55-36.24-3.65-5.98-4.55-13.86-11.7-17.53-1.33-1.3-2.85-1.59-4.77-1.77-7.06-.67-14.26,1.11-21.21-1.23v7.98c2.73.19,4.9,2.45,7.78,2.08,2.27,4.01,4.54,8.02,6.81,12.02.82,1.76,2.47,2.17,4.11,2.16,4.44-.04,8.88-.26,13.33-.41-.31-.16-.65-.29-1.01-.4.35.06.7.18,1.01.4,5.08,9.17,11.5,17.41,18.47,25.14,3.45,3.83,8.28,6.39,12.34,9.59,10.81,8.52,21.69,16.83,33.6,23.62-1.06,1.53-2.14,3.15-3.27,4.73-2.49,3.49-1.83,6.79,1.42,9.04,3.27,2.26,5.72,5.36,8.92,7.65,2.84,2.02,3.79,4.3,1.7,7.76-.88,1.45-2.75,4.87,1.8,5.22,2.03,3.62,6.02,4.73,9.04,7.09,3.46,2.7,6.63,3.22,10.03.17,3.49-1.84,7.87-1.33,11-4.13,3.21-1.07,7-1.41,9.52-3.36,6.25-4.85,11.48-4.02,16.65,1.3,1.73,1.5,2.87,3.77,5.44,4.18.32,1.12,1.28,1.14,2.17,1.27.48.97,1.3.82,2.13.65.52.36,1.04.73,1.56,1.09.95,1.81,3,1.79,4.51,2.67v.1c.69,1.93,2.5,1.6,3.97,1.97,2.33,1.84,4.98,2.84,7.93,3.09,1.3.38,2.6.48,3.92.48,7.02.76,14.04.82,21.05-.38.33.25.65.21.96-.15,4.97.37,9.91.08,14.81-.81,0,0,0,0,0,0,4.21.02,8.39-.2,12.32-1.89.22-.08.43-.17.65-.27,1.73-1.98,5.46-.29,6.5-3.52h0c.69.18,1.39.36,2.08.54.89,1.01,1.79,2.01,2.68,3.02h0c.24,3.07,2.85,3.22,4.94,4.02,2.7,2.43,5.43,1.15,8.15.38.44-.04.88-.15,1.3-.31,3.31-1.74,6.75-3.29,8.75-6.72,1.39-.18.87-1.88,1.89-2.35,5.42-3.23,8.2-9.08,12.97-13,2.92-2.4,6.06-4.91,7.03-8.96,1.15,0,1-.91,1.13-1.62,7.79-9.23,6.6-12.84-2.95-21.4Zm-273.5-59.99c-.09.09-.18.17-.27.26,0-.13-.02-.25-.05-.36.11,0,.23-.02.34-.02,0,.04-.01.09-.02.13Zm.63-2.2c-1.96-1.23-4-1.26-6.09-.4-.25-.23-.5-.47-.77-.69-.46-.23-.84-.52-1.18-.85-.23-.52-.46-1.05-.71-1.56-.35.1-.72.15-1.09.11-2.37-.22-3.23-2.92-3.79-4.85-.2-.71.25-1.54.97-1.72,1.9-.46,3.78-.46,5.53.47.56.29,1.06.67,1.56,1.05.42-.19.84-.35,1.29-.47.76-.19,1.48.25,1.72.97.16.48-.04,1.01-.39,1.37.21-.04.41-.07.62-.13.08-.05.16-.1.23-.16.79,2.26,2.78,4.27,2.1,6.85Zm83.02,83.09c-.6.44-1.46.4-2.14.11-2.54-1.1-4.94-2.96-6.82-4.99-.92-.99-1.89-2.24-2.34-3.58-.45-.59-.79-1.25-.92-1.96-.31-1.69.44-3.21,1.66-4.35.78-.73,1.92-.72,2.71,0,.16.14.27.32.36.51.25.02.5.05.75.09,1.32-.18,2.69-.15,3.98-.01,2.94.32,6.35,1.55,7.03,4.82.63,3.05-.97,6.07-2.74,8.45-.4.54-.94.88-1.53.93Zm145.04,22.1c.16-.03.32-.07.5-.13.09-.03.23.11.24.21-.28,0-.52-.03-.74-.09Z"/>
        <polygon class="cls-2" points="302.03 697.2 302.03 697.2 302.03 697.2 302.03 697.2 302.03 697.2"/>
        <path class="cls-2" d="m295.81,706.7c-.05-.03-.11-.06-.16-.09.07.03.14.05.21.08-.02,0-.03.01-.04.02Z"/>
        <path class="cls-2" d="m235.14,756.35s-.04-.06-.06-.1c.03,0,.05,0,.07,0,0,.03,0,.06-.01.09Z"/>
        <path class="cls-2" d="m240.07,759.08s-.05-.05-.08-.07c.03,0,.05,0,.08,0h0s0,.05,0,.07Z"/>
        <path class="cls-2" d="m190.41,540.45c.56,2.18,2.99,3.19,5.24,2.26,2.44-1.01,1.86-3.55,1.04-5.07-1.91-3.51-4.36-6.72-6.59-10.05-3.05-6.78-8.71-11.69-12.81-17.72-1.02-1.5-3.24-1.69-4.51-.78-1.51,1.07-.92,2.85.22,4.31,1.71,2.19,3.06,4.71,5.01,6.66,4.07,4.08,5.52,10,10.02,13.72-.74,2.73,1.8,4.32,2.4,6.65Z"/>
        <path class="cls-2" d="m286.76,697.76c.26-1.59-1.23-2.57-3.58-2.43-.45,1.47-3.7-.05-3.54,3.17.12,2.48,1.54,3.65,3.63,3.79,3.07.21,3.17-2.64,3.49-4.53Z"/>
        <path class="cls-2" d="m610.17,728.4c-7.18-5.82-14.7-10.95-23.1-14.65-15.61-6.87-31.37-13.38-46.98-20,7.18-11.15,6.63-23.29,5.95-35.45.37-1.33.75-2.67,1.12-4v-2.99c1.37-1.81,3.3-3.34,3-5.98.53-4.67-3.99-4.8-6.28-6.93-2.3-1.87-4.39-4.25-7.88-3.21-1.03-.53-2.06-1.06-3.09-1.59-2.58-2.21-5.54-3.31-8.96-3.07-.72-.22-1.71.09-2.01-.98-5.16-1.09-9.6-4.32-14.92-4.94-.99-.45-1.74-1.58-3.06-1.04-3.28.56-5.76-1.85-8.86-2.29-7.26-1.05-14.67-2.03-21.57-4.36-4.8-1.62-9.72-2.85-14.53-4.3-7.37-2.23-14.69-4.56-22-6.97-8.32-3.41-16.64-6.82-24.97-10.23-1.31-1.51-2.99-2.12-4.96-2.07-1.3-2.4-4.03-1.97-6-3.02-.63-1.5-1.97-.55-2.95-.87-3.98-2.82-8.59-4.31-13.07-6.06-.61-1.5-2.01-.61-3-.98-2.54-2.38-6.14-2.23-9.04-3.75-3.03-2.06-6.65-2.62-9.99-3.88-.66-.22-.88.18-1.01.71-1.12.23-2.76-.55-2.89,1.56-.09,1.42.9,1.46,1.87,1.54-1.16,2.53-2.24,5.07-1.13,7.92h0c-.27.92-.72,1.82-.79,2.75-.75,10.06-1.43,20.12-2.13,30.17h0c-1.25,1.82-.81,3.92-.97,5.92-2.01.88-.43,2.62-.49,3.67-.4,6.92-3.49,13.33-3.53,20.27h0c-.24,1.01-.48,2.02-.72,3.03.2,1.46-1.7,2.38-1,3.96h0c0,.68,0,1.36-.01,2.04-.13.27-.21.55-.23.84-2.93,6.02-3.84,12.54-4.75,19.05-.37,1.88-1.57,3.56-1.23,5.63.25,1.49-.26,3.46,2,3.65,1.69.14,3.77.37,3.99-2.29h0c2.36.93,4.71,1.85,7.07,2.78,3.62,1.81,7.89,2.21,11.01,5.1,1.65.39,3.3.79,4.94,1.18.64,1.4,1.97.73,2.99,1.01.38.99,1.25.86,2.05.91.22.19.45.31.68.38.4.22.79.45,1.19.67,2.28,2.06,5.66,1.26,8.04,3.05.15.53.4.92,1.05.74,1.01.38,2.01.76,3.02,1.14,1.15.74,2.48.19,3.84.79,4,1.77,8.02,3.7,12.49,4.2,4.84.54,9.11,3.1,13.71,4.48,3.53,1.06,7.02,4.01,10.88,5.25,3.79,1.22,7.81,1.73,11.58,2.52-13.77,8.58-27.61,16.98-40.47,26.87-1.66,1.27-3.32,2.54-4.98,3.8-1.97,1.38-4.06,2.63-5.21,4.88-.76.05-1.62-.09-1.87.96-3.98,1.86-6.36,5.71-10,8-1.27.72-2.33,1.64-3.01,2.96-5.91,5.08-12.06,9.89-16.98,16.01-1.56,1.38-3.1,2.77-4.67,4.13-1.79,1.55-2.11,3.15-.25,4.88.13.72-.4,1.8,1,1.82.25.15.52.22.81.23-.88,1.93.67,3.32,1.13,4.95h5c-.63-1.01-1.27-2.02-1.9-3.02-.77-1.64-1.53-3.27-2.3-4.91.18-.64-.18-.92-.73-1.07.15-2.55,3.22-2.83,3.91-4.97,1.59-1.55,3.58-2.51,5.26-4.05,8.69-7.91,17.26-15.99,26.71-23.05,2.95-2.28,5.9-4.56,8.85-6.83,7.19-4.93,14.29-9.98,21.58-14.75,5.44-3.56,11.13-6.76,16.7-10.11.31-.31.62-.61.94-.92,10.33-5.67,20.66-11.33,30.98-17,1.58-.23,2.96-.85,4.06-2.03,1.56-.16,2.86-.83,3.94-1.95h0s0,0,0,0c.1-.02.15-.09.19-.18.27-.25.53-.51.8-.76,9.41-2.76,17.7-7.93,26.42-12.16,11.1-5.38,7.12-6.62,16.51,1.18.26,1.11,1.26.79,1.97,1.01.68.58,1.3,1.25,2.05,1.73,3.79,2.41,6.99,5.99,11.94,6.15-.07,1.36.36,2.23,1.93,2.01,4.22,3.16,9.43,4.11,14.11,6.26,12.12,5.58,24.42,10.76,36.42,16.63,7.36,3.6,8.07,6.06,2.44,11.71-.69.69-1.31,1.45-1.97,2.17,0,0,0,0,0,0-.65.67-1.3,1.35-1.95,2.02-1.34.88-2.75,1.68-4.02,2.65-11.45,8.69-22.86,17.45-34.33,26.12-8.46,6.4-16.11,13.7-23.66,21.12-.33.33-.66.66-.99.99-.32.31-.65.62-.97.93-.33.31-.66.63-.99.94-2.73.04-2.77,2.65-3.96,4.15h11c.03-.66.06-1.31.09-1.97,2.18.15,2.95-1.61,4.02-2.96,6.66-5.84,13.17-11.86,20.03-17.46,6.74-5.5,13.66-10.79,20.46-16.22,5.7-4.55,12.11-8.22,17.51-13.21,5.52-3.28,9.05-8.58,13.04-13.34.48-.58,1.72-3.14-.99-5.34Zm-166.16-14.15h0c.05-.06.11-.11.17-.17,0,0,0,0,0,0-.06.05-.12.11-.18.17Zm95.94-56.59c-2.58,1.18-2,3.48-1.96,5.55.12,5.58.33,11.21-.96,16.64-1.85,7.77-2.07,7.72-9.08,4.65-.59.22-.86.23-.96.14-.02-.05-.03-.11-.05-.16.03-.31.43-.86.29-1.05-4.27-4.43-7.23-5.11-12.24-2.25-5.76,3.29-11.52,6.55-17.52,9.38-3.13,1.48-6.59,2.34-9.19,4.84-.29.13-.37.57-.47.99-.43,0-.66.31-.8.75,0,.03,0,.06.01.09-.2-.06-.46-.2-.81-.47-3.92,1.04-7.7,2.34-10.41,5.53-2.24-.54-3.87.02-4.62,2.17-1.89.03-3.63.76-5.12,1.7-5.88,3.72-11.99,6.49-19.18,5.82-.05.06-.09.14-.13.23-.09-.03-.18-.06-.28-.08.01-.17,0-.36-.02-.57-1.21-1.91-3.25-2.36-5.2-2.47-5.64-.33-10.61-2.44-15.52-5.03-2.56-1.35-5.25-3.1-8.49-1.85-.15.18-.29.31-.42.42-.39-.5-.98-.41-1.58-.31-.22-.39-.41-.84-.68-1.07-6.31-3.53-13.29-4.7-20.3-5.75-.11.06-.22.11-.33.16-.87-2.37-3.36-1.76-5.16-2.41-.41-.18-.87-.04-1.33.09-.48-.24-1.05-.17-1.62-.12-.12-.11-.23-.25-.33-.44-.32-.58-.81-.91-1.49-.92-.13.02-.25.06-.37.1-1.41-1.97-3.33-2.13-5.59-1.07-.09.11-.17.22-.23.33-.5-.33-1-.66-1.5-.99-.45-.58-.88-1.18-1.34-1.76-5.42-2.75-10.64-6.11-17.14-5.53,0,0,0,0,0,0-1.14-2.12-2.75-2.99-5.03-2.13-.3-1.27-.53-2.58-1.68-3.39.16-.04.32-.09.48-.13,2.59-3.18,1.78-7.27,2.89-10.84-.05-.22-.13-.42-.22-.63,1.68-1.44,1.48-3.33.9-5.3,2.09-1.98,3.02-4.15,1.24-6.8,1.77-1.15,2.3-3.06,2.64-4.91,1.08-5.83,2.61-11.61,2.54-17.61-.32-.92-.49-1.89-.69-2.84.32-3.63.63-7.26.95-10.89.46-.37.88-.8,1.22-1.33,1.72-8.03,1.99-16.16,1.69-24.33-.22-.19-.41-.41-.57-.66,1.32-1.5.56-3.47.91-5.18.33-1.65-.57-3.56.65-5.03,0,.05,0,.1.01.16.63,1.2,1.79,1.39,2.98,1.54,1.75.07,3.51.12,4.7,1.7,6.61,4.59,13.95,7.7,21.48,10.41.12-.09.24-.19.35-.29,2.04,1.85,3.91,4.14,7.06,3.05.19.13.38.26.61.37.42.14.86.22,1.31.23.78,2,2.05,3.13,4.42,2.31.8,1.03,1.86,1.48,3.15,1.4.08-.03.16-.07.24-.11.12.4.36.63.78.6.06.28.19.52.42.73,5.59,3.42,11.81,5.57,17.57,8.67,1.09.58,2.37.74,3.6.21.3.28.67.4,1.09.4.12.29.26.57.49.83,8.25,3.85,16.52,7.64,25.82,8.2.16-.09.31-.17.46-.25.73,1.27,1.98.48,3.07.33.16.26.31.59.43,1.01,1.64,2.67,4.52,2.4,7.06,2.91,10.04,2.02,19.88,4.89,29.8,7.38,10.56,2.65,20.5,7.45,30.76,11.17,3.07,1.11,5.66,2.7,7.29,5.61.02.02.04.04.06.05-1.74,2.54-.36,5.41-.71,8.1-.04,0-.07,0-.11,0Z"/>
        <path class="cls-2" d="m520.64,717.08c-.97.94-2.72,1.2-2.81,2.97-.94,1.02-1.89,2.04-2.83,3.05-2.79,2.27-5.77,4.36-7.11,7.92-.96-.27-1.91-.53-2.87-.8-.35,0-.7.02-1.05.02h0c-5.15-2.24-10.06-1-14.92,1-7.35,4.07-7.9,7.82-2,13.52,1.39.85,1.13,1.6.1,2.69-3.37,3.58-6.76,7.15-9.86,10.95-2.47,3.02-4.8,3.83-7.67.73-1.17-1.27-3.12-1.59-3.97-.77-.94.9-.6,2.29.74,3.93,4.26,5.23,3.89,5.55-1.45,10.33-1.52,1.36-3.94,1.69-4.64,3.97,4.25,3.19,4.18,3.07,8.38.34,2.41-1.57,3.47-4.32,5.78-5.87.84-.57.93-2.06,2.6-1.67,5.12,1.18,9.98-.65,14.92-1.56,3.37-1.29,7.37-.88,10.14-3.77,6.09-1.56,7.25-5.82,3.01-11.08-1.6-2.19-3.63-3.94-6.14-4.89-2.49-.94-2-2.37-1.14-4.06,2.42-.99,2.98-3.84,5.12-5.1,2.44.6,2.22-2.56,4.04-2.84,1.92.21,2.22,2.58,4,2.98.4.67.8,1.35,1.19,2.02.42,1.1.65,2.31,1.78,2.99.23.52.16,1.71.84,1.37,1.3-.66,2.77-1.93,2.08-3.48-1.08-2.4-1.08-5.48-3.84-6.99-.67-.63-1.35-1.27-2.02-1.9.83-3.52,4.42-4.96,5.99-7.92,2.59-1.15,2.78-3.97,4.15-5.97,1.36-.06,2.3-.68,1.74-2.09-.56-1.4-1.68-.61-2.29-.01Zm-21.21,36.91c0,.06.02.11.02.17.19.43.43.78.8.93-.19,1.27.07,2.52.2,3.78-3.02.04-5.84.68-8.12,2.96,0,0-.01-.02-.02-.02-3.35-1.9-6.42,1.53-9.96.65,3.45-3.94,6.62-7.74,9.95-11.4.15-.11.29-.22.43-.33.8.62,1.84.73,2.89.82.24-.08.46-.13.68-.18,1.11.79,1.76,2.19,3.12,2.65Zm.32-16.98c-1.31-.21-1.9.66-2.39,1.71,0,.28-.04.51-.09.71-.54.36-1.07.72-1.61,1.08-.24,0-.49,0-.76-.04-.77.18-1.39.54-1.7,1.22-.23-.15-.47-.29-.73-.4-.43-.16-.88-.26-1.34-.32-.2-.71-.83-1.19-1.44-1.69-.31-.17-.52-.34-.7-.52.09-.81.36-1.56.86-2.25.18.06.38.12.6.16,3.45-.7,7-.87,10.33-2.13-.06-.33-.03-.59.05-.82.06.06.11.11.17.17-.12,1.15-1.39,1.82-1.28,3.06,0,.02.02.04.03.06Z"/>
        <path class="cls-2" d="m1143.25,101.65c5.53-2.32,7.71-7.4,6.74-12.14-1.01-4.91-4.5-7.71-11.43-7.41-5.35.24-8.38-1.09-9.55-6.26-.46-.95.52-2.38-.99-2.98.07-1.77,2.79-.36,2.61-2.01-.16-1.46-1.64-1.7-2.92-1.97-.37-.08-.64-.63-.96-.96-.97-3.97-2.11-7.92-2.82-11.94-.24-1.37-.74-2.05-1.88-2.3-1.87-.4-1.71,1.17-2,2.26,0,.33.01.66.02.98-.42,3.86.74,7.43,2.02,10.99.03,1.33-1,1.77-1.84,2.56-2.99,2.79-5.59,5.91-5.41,10.39-.46,4.31.42,5.01,6.12,4.86,5.88-.66,8.11,2.49,8.29,7.84,0,.28.41.53.51.83,1.94,5.84,1.97,6.17-4.2,6.69-2.16.19-1.82,1.59-2.29,2.38-.79,1.32.58,2.06,1.69,2.28,2.65.52,5.34.81,7.78-.85-.04,1.46.47,2.74,1.34,3.9.88,4.2,1.27,8.49,3.54,12.36.94,1.61,2.2,2.11,3.52,1.9,1.67-.27.86-1.98.72-2.91-.52-3.5-.58-7.34-2.16-10.36-2.52-4.83-.77-6.31,3.57-8.13Zm-22.06-20.29c-.13.14-.23.28-.33.43-.43-1.42.04-3.01-.63-4.39.02,0,.03-.01.05-.01,1.61-1.25,3-.33,4.42.33-.03.03-.06.05-.08.09.63,2.9-1.44,3.18-3.43,3.56Zm16.34,16.85c-.66,0-1.12-.45-1.34-1.02-.72-1.82-1.03-3.77-1.75-5.59-.14-.35-.07-.72.12-1.02-.16-.7-.22-1.43-.17-2.14.06-.81.6-1.32,1.39-1.39,2.16-.19,4.64-.03,6.54,1.13.96.58,1.67,1.41,2.06,2.46.4,1.06.3,2.29,0,3.36-.35,1.23-.9,2.49-1.72,3.49-.62.76-1.6,1.26-2.59,1-.34-.09-.64-.25-.9-.45-.54.12-1.1.19-1.64.19Z"/>
        <path class="cls-2" d="m1116.51,191.29c1.19-1.5-.33-2.19-1.69-2.54-4.45-1.51-9.4-2.7-13.16.23-2.83,2.2-4.48,1.61-6.84.31-1.71-.95-3.56-1.69-5.18-2.77-1.34-.9-2.53-1.61-3.69,0-1.32,1.84-.28,3.56,1.1,4.51,2.12,1.45,4.61,2.36,6.91,3.55,1.57.81,3.13.93,2.23,3.96-1.23,4.14.92,8.68,3.46,11.7,6.35,7.54,15.68,11.71,25.73,3.55,2.03-1.65,4.55-2.26,6.52.49,1.97.79,3.94,1.58,5.91,2.37-2.79,1.18-5.59,2.37-8.77,3.71.48.91.95,1.83,1.27,2.8,3.5.67,6.58.57,9.56-1.83.83.16,1.69.42,2.05-.73,4.56-1.23,7.93,2.28,12,2.98,1.26.55,2.48,1.34,3.94.68.29.15.59.24.91.28,1.43,1.78,3.15.91,4.66.29.6-.24.21-1.08-.5-1.37-2.43-4.17-6.97-5.39-10.94-6.66-3.86-1.23-2.7-2.53-1.44-4.62,2.3-3.81,3.34-7.71.64-11.8-.37-2.12-1.43-3.78-3.29-4.91-4.48-2.73-7.24-2.09-13.08,2.99-1.45,1.14-3.19,1.59-4.32,3.58-1.08,1.92-3.79,3.87-6.43,2.09-6.62-4.45-14.65-6.22-21.12-11.29,2.99-2.42,6.7-1.15,9.85-2.23,1.08,1.19,2.62,2,3.69.65Zm20.76,11.27c.11-.01.22-.03.33-.06.11.11.22.22.35.32,2.6,0,4.14-3.03,6.81-2.82-.11,1.58.74,2.62,2.04,3.4-.13.13-.28.24-.44.33-.73,4.58-2.44,8.11-8.04,7.46-.03,0-.05,0-.08.03,0-.03.02-.06.02-.1-2.95-2.51-2.08-5.41-.86-8.34-.04-.07-.08-.14-.12-.21Zm-21.04,3.84c.49.27.69.69.69,1.11.56.38.95.95,1,1.75.06,1.07-.56,2.09-1.36,2.76-.97.82-2.22,1.26-3.49,1.12-1.74-.2-3.02-1.34-3.98-2.73-.03-.04-.04-.09-.06-.13-1.11-.26-2.19-.72-3.16-1.29-2.56-1.51-4.93-4-5.66-6.95-.13-.55.07-1.32.64-1.57,5.8-2.55,10.8,3.4,15.39,5.94Z"/>
        <path class="cls-2" d="m19.01,68.94c6.44,7.68,19.65,9.49,27.17,3.99,3.56-.93,6.18-3.02,7.85-6.29,1.05-.08.97-.92,1.1-1.61.64-.42,1.29-.83,1.93-1.25,1.56-.85,1.96-2.25,1.87-3.89,7.41-13.65,1.6-28.49-10.83-33.68-.32-.09-.65-.18-.97-.27-.56-.59-.59-2.26-2.05-1.01-3.46-1.73-7.16-2.07-10.95-1.99-.75-1.32-2-.47-3-.71-3.51-2.43-6.53.22-9.73.94-2.89,3.43-6.73,5.99-9.06,9.92-2.36,7.12-4.79,14.24-2.05,21.85.9,5.92,4.25,10.31,8.73,14Zm-1.06-32.99c1.17-2.51,2.11-5.86,6.28-3.73.64.33,1.65-.19,2.35-.63,2.91-1.83,5.96-1.54,9.14-.86,3.41.73,6.8,1.52,10.21,2.23.04,0,.09,0,.13,0,.05.16.12.31.26.42,8.85,6.69,10.39,15.18,6.26,25.09-.12.29,0,.65.09.98.07.16.17.29.26.43-1.17.64-1.8,1.65-1.96,2.97.02,0,.03,0,.05,0,0,.11.01.21.03.31-.15-.12-.29-.25-.39-.42-3.5,1.47-6.86,3.12-8.49,6.86-.83-.59-1.8-.81-2.74-.6-4.89,1.12-9.12-.57-13.26-2.89-1.26-.71-2.45-1.74-4.08-1.4-.69-4.25-3.21-7.25-6.63-9.62.07-.08.14-.16.21-.25.74-1.63.32-3.25.03-4.88-.86-4.92.17-9.58,2.24-14Z"/>
        <path class="cls-2" d="m898.52,64.82c2.13-1.64,4.29-3.25,6.44-4.87,2.59-1.08,5.12-1.14,6.71,1.47.74,1.22,1.65,1.16,2.68,1.57,7.86,3.09,13.42-3.35,14.73-10,1.54-1.35,1.2-3.34,1.71-5.04-.1-2.21.47-3.76,2.7-5.04,4.66-2.66,9.66-4.88,13.41-8.95,1.97-2.13,3.98-3.05,6.26-.1.38.5.87,2.43,2.57,1.44,1.57-.91.18-2.02.35-2.96.39-2.06-1.97-4.54.9-6.2,0,0,0,0,0,0h0c1.06,0,1.89-.47,2.59-1.23.8-.88,2.21-1.31,1.96-2.94-.15-.95-.82-.81-1.42-.83-1.45-.05-3.12-.43-3.18,1.87h0c-3.13.21-6.26.51-9.22-.97-3.13-1.57-6.44-.96-9.38.1-8.13,2.91-14.7,8.25-13.15,16.67.59,3.17-.64,4.44-2.33,6.13-2.91.32-4.7,2.57-6.98,3.99-.31,0-.61.06-.89.2-1.66.91-3.31,1.82-4.97,2.72-1.59-2.82-3.16-5.87-2.77-9.01.24-1.92.46-3.48-1.44-3.55-1.69-.06-2.95,1.27-2.9,3.58.1,4.27.99,8.26,2.94,12.04-.86.5-1.65,1.05-1.86,2.12-3.44.64-4.95,3.96-7.69,5.61-.46.27-.55,2.05-.13,2.67.78,1.15,1.62.08,2.36-.5Zm31.46-32.34c.78-2.48,3.06-4.31,5.27-5.51,2.1-1.13,4.89-2.16,7.28-1.41.54.17,1.09.73,1.02,1.34-.28,2.65-2.4,4.25-4.61,5.41-2.04,1.07-4.35,1.76-6.22,3.13-.61.45-1.56.1-1.91-.5-.17-.29-.21-.58-.17-.86-.53-.31-.86-1.03-.67-1.61Zm-14.6,21.03c0-.12.02-.24.04-.36,1.51.59,2.3-.08,2.74-1.35,2.4.07,4.64-.12,5.54-2.41.07,1.63-1.25,3.14-.88,4.81-.11.08-.22.16-.33.24-4.62,3.56-5.08,3.72-8.26.57.53-.26.85-.87,1.15-1.49Z"/>
        <path class="cls-2" d="m791.39,39.62c.89,2.85.06,4.61-1.27,6.67-.78,1.2-2.41,1.87-2.29,3.64-.97,1.63-1.94,3.25-2.91,4.88-.94.69-1.89,1.39-2.83,2.08-.99-.64-1.91-1.42-2.97-1.89-1.59-.7-1.5-1.33-.17-2.17.96.22,2.07,1.62,2.83.03.67-1.4-.33-2-1.67-2.07-1.25-1.97-3.11-2.62-4.99-1.36-1.89,1.26-2.05,3.47-1.48,5.55.64,2.34,2.26,3.97,4.53,4.74,1.2.41,2.27.53,1.7,2.16-1.25,1.04-1.45,2.6-1.97,4-2.47,2.44-4.24,5.14-3.65,8.95,4.59-.93,5.73-4.81,7.76-7.82l1.99-3.08c.53-.15.89-.42.75-1.05.77-1.14,1.54-2.29,3.21-1.93,2.68,1.32,4.77.89,6.06-1.99,4.46-.4,3.72-4.31,4.76-7.02-1.79-9.11,3.43-15.21,9.12-21.11,1.19.23,2.46,2.01,3.46.67,1.2-1.62-.17-3.18-1.29-4.51-.06-.33-.12-.66-.18-.99.77-1.79,3.29-2.54,2.93-4.99.39-.69.83-1.36,1.16-2.08.52-1.13,1.78-2.75.56-3.43-1.21-.67-3.18-.57-4.51.94-.69.79-1.13,1.54-1.16,2.55-1.95.81-1.83,3.52-3.9,4.21-8.29-.38-15.99,8.62-13.56,16.4Zm.12,16.24c-.51-.01-.75.39-.87.97.01.05.02.1.02.15-.18.04-.35.07-.53.11-.02-.11-.03-.22-.07-.35-.16-.15-.32-.28-.5-.39.87-.86,1.84-1.66,1.46-3.14.81.11,1.41-.21,1.92-.72-.63,1.06-1.32,2.09-1.43,3.36Zm5.65-25.15c.02-.06.04-.11.06-.17.11-.34.22-.68.38-1.01.36-.79,1.11-1.29,1.93-1.52,1.01-.27,2.01.68,1.72,1.72-.8,2.76-2.44,5.16-4.84,6.78-.52.35-1.25.18-1.69-.22-.42-.38-.57-1.22-.22-1.69.92-1.24,1.74-2.55,2.63-3.82.01-.02.02-.05.03-.07Z"/>
        <path class="cls-2" d="m292.99,42.12c-1.78,3.29-5.41,4.52-7.91,7.02-2.29,2.71-6.27,3.4-8.07,6.7-3.35-.08-3.95,5.25-7.9,3.98-.38-1.04-.71-2.1-1.14-3.12-2.25-5.39.71-11.69,6.06-12.85,1.39.38,1.88,2.52,3.58,2.03.57-.17,1.25-1.32,1.2-1.97-.15-2.04-2.26-2.08-3.57-2.86-.92-.55-2.14-.6-3.23-.87-1.64-.53-2.77.22-3.98,1.29-6.04,5.34-6.94,10.93-3.02,19.5.31,1.77,2.11,3.82-.96,4.94-1.05.24-1.55,1.07-2.05,1.91-1.34.99-2.67,1.98-4.01,2.96-.82,1.01-2.39,1.87-1.31,3.42.42.6,1.65,1.05,2.16-.36.79-1.26,2.86-1.02,3.26-2.75.89-.41,2.13-.57,2.62-1.27,3.39-4.77,8.2-3.47,12.58-2.74,4.01.67,7.28.38,9.8-3.06,4.39-.31,4.78-4.05,6.06-7.02,3.25-3.33,2.39-8.37,4.99-11.97,2.86-.32,4.73-2.41,6.94-3.88,2.45-.73,4.77-1.61,6.8-3.34,1.75-1.49.77.88,1.31,1.19,0,1.33,0,2.66,0,4-.64,2.55,1.77,2.59,2.91,2.76,1.32.2,2.13-1.22,1.95-2.75,1.48-1.33,1.34-2.67.02-4.01.13-1.71-.05-3.27-1.93-4.02,1.82-2.76,5.28-3.13,7.52-5.2.6-.56,3.24-.28,1.57-2.49-.92-1.21-1.17-2.88-3.47-2.51-1.95.31-3.22,1.47-4.71,2.42-1.05-.17-2.19,2.18-3.29-.54-.67-1.66-2.32-3.49-4.68-3.72-.61-1.46-1.93-.68-2.93-.93-1.78-2.27-3.4.39-5.11.17-.82-.12-1.7-.38-2.02.78-1.24.31-3.28-.58-3.02,1.99-.77.18-1.77-.09-2.06,1.04-1.23.64-1.93,1.62-1.94,3.03-1.04.37-.96,1.17-.77,2.01.05,3.78-1.35,7.79,1.75,11.1Zm-4.2,14.87c-.12.1-.23.19-.35.29-.01.04-.03.09-.04.13-1.47,1.45-2.94,2.91-4.41,4.36-.02.01-.03.03-.05.04,0,0,0,0,0,0,0,0-.02.02-.03.03,0,0,.01,0,.02,0-.04.13-.06.24-.09.35,0-.41.03-.82-.37-.74-1.92-.68-3.77,0-5.65.23,1.26-.89,2.41-1.87,2.53-3.72,3.4.1,5.42-1.76,6.67-4.7.02,0,.03.02.04.03,1.5.26,2.61-.52,3.62-1.35-1.18,1.47-2.8,2.84-1.9,5.05Zm11.27-30.11c2.3.07,4.61.15,6.91.22-.13,1.82,1.06,3.21,1.66,4.79-.04.04-.08.07-.11.11-2.19,1.32-4.92,2-5.81,4.87,0,.04.02.07.03.1-2.68-.18-4.42.83-4.67,3.7-.2-.13-.41-.24-.65-.31-.17-.03-.35-.05-.52-.08-.21-.48-.42-.97-.63-1.45.16-.3.31-.61.48-.9.65-2.04.16-3.92-.82-5.73-.1-.16-.21-.32-.31-.47,1.86-1.26,2.14-4.02,4.45-4.85Z"/>
        <path class="cls-2" d="m24.84,209.99c-2.29-2.31-5-3.24-7.07-.46-2.22,3-4.23,2.21-6.65.87-1.31-1.61-3.38-3.72-4.88-1.92-1.66,2,1.7,2.53,2.83,3.7.88.9,2.01,1.56,3.03,2.33.66,1.12.67,1.99.28,3.48-1.78,6.76,1.08,14.57,6.69,17.78,5.62,3.21,11.68,4.07,16.94-.85,2.05-1.92,3.1-.58,4.43.42,2.69,2,5.26,4.16,8.65,4.93,1.93,1.65,5.26,2.87,1.88,6.14-.31.31-.61.63-.92.94-2.66.03-5.32.09-7.98.08-1.47,0-2.67.46-2.9,1.97-.3,1.9,1.49,3.93,2.42,3.72,3.14-.72,6.68.87,9.47-1.58,1.98.61,3.17-.39,4.07-1.98,2.51-3.43,4.04-.61,5.55.99,2.11,2.23,5.07,3.62,6.97,1.3,2.28-2.78-1.5-4.18-3.24-5.19-2.88-1.67-4.2-3.29-3.45-6.84.79-3.75-.34-7.36-3.04-10.31-.22-1.64-1.32-2.11-2.79-2.09-.87-1.64-1.54-3.55-4.07-2.88-3.88-1.59-7.23.33-10.45,1.92-2.9,1.43-5.23,1.4-7.43-1-2.16-2.69-5.34-4-8.1-5.87-7.5-5.11-7.54-5.05-.26-9.58Zm25.95,19.01c.11-.12.19-.24.28-.36.12,2.38.87,4.25,3.35,4.74.01.19,0,.38-.03.59,1,2.92-1.17,2.82-2.78,3.25,0-.02,0-.04,0-.06-1.54-3.46-5.11-4.28-7.91-6.11,2.39-.6,4.75-1.27,7.09-2.05Zm-30.56-6.52s.02.07.03.09c0,.01,0,.01.01.03.05.09.09.19.14.28.11.21.23.41.35.61.07.11.15.22.22.32,0,.01,0,.01.02.02,0,0,.02.02.02.03.78.52,1.63.95,2.47,1.35,1.56.73,3.17,1.38,4.68,2.22.33,0,.66.08.96.21-.44-.19.16-.02.31.02.3.06.59.17.86.31.77.4,1.16,1.09,1.46,1.87.28.74-.19,1.82-.88,2.16-3.02,1.46-6.43,1.09-9.25-.7-2.63-1.67-4.76-4.36-5.45-7.43-.18-.81.1-1.57.71-2.03.26-.31.61-.56.97-.68,1.05-.34,2,.4,2.35,1.34Z"/>
        <path class="cls-2" d="m747.03,746.89c-.02-.28-.07-.55-.13-.82-.62-.38-1.24-.76-1.86-1.13-.21-.65.34-1.75-1.03-1.7-.37-.33-.74-.67-1.11-1-.49-1.2-.9-2.51-2.5-2.25,0-.06.02-.11.03-.17-.44-1.79-1.26-3.13-3.43-2.87-1-.38-2.01-.77-3.01-1.15-.65-.39-1.34-.63-2.11-.61-.07.01-.14.02-.22.03-.34-.33-.67-.65-1.01-.98-1.9,0-3.79,0-5.69-.01-.66,0-1.32,0-1.98,0-1.46-.51-2.72.18-4,.7-.34.11-.68.22-1.01.33l-3.99,1.62c-2.69,2.71-5.39,5.42-8.08,8.13-1.91.67-1.93,2.77-3.06,4.02.17.31.18.63.03.95-.61.72-1.23,1.44-1.84,2.15.37,1.45-1.63,2.38-.87,3.92-1.78,7.18-2.48,14.26,1.7,20.96h0,0c.43,1.29.85,2.58,1.28,3.87.82.02,1.67-.02,1.96,1.02.61.72,1.22,1.44,1.84,2.16.3,1.07,1.26.78,1.99.98,3.85,3.94,8.51,6.28,13.99,6.97,1.1,1.37,2.4,1.91,4.05.93,5.55.79,11.03,1.17,15.99-2.23,1.01-.57,2.01-1.15,3.02-1.72.97-1.01,2.62-1.4,2.82-3.11.33-.64.65-1.29.98-1.93.39-.37.77-.75,1.16-1.12.08-.33.04-.64-.13-.94.41-.96,1.6-1.64,1.01-2.94.41-1.99,1.56-3.82,1.26-5.96,1.56-.9-.5-1.33-.27-2.06,4.28-8.54.36-16.79-5.79-24.07Zm-21.85-11.86s-.01.08-.02.12c-.06-.04-.11-.08-.17-.12.06,0,.12,0,.19,0Zm17.82,53.81s-.03.04-.05.07c-.01,0-.02-.01-.03-.02.03-.07.06-.14.09-.2,0,.05-.01.1-.02.16Zm3.72-14.34c-1.59,1.24-1.75,2.73-.58,4.44.18.04.31.14.42.29-.29-.09-.56-.21-.78-.41-1.73,2.91-4.61,4.95-6.11,8.03,0,.01,0,.02.01.03-6.21-.38-12.42-.39-18.64-.24-.03.04-.04.09-.07.13-1.93-3.49-5.49-4.26-8.86-5.34-.04-1.06-.58-1.61-1.73-1.52-.08-1.69-1.05-2.67-2.62-3.21-.39.19-.61.26-.69.2.26-.16.4-.42.42-.73-.04-.99-.6-1.56-1.52-1.82-.45-4.79-1.53-9.51-1.83-14.32-.02-.28-.24-.5-.51-.68,0,0,.02,0,.03,0,2.2-2.74,3.19-5.76,2.31-9.2.09,0,.18,0,.26.01.25.12.43.1.57-.03.17.08.35.15.55.22,3.65-3.89,7.89-7.24,10.98-11.64.45.57,1.03.79,1.81.44,1.57,2.81,3.67,3.77,6.57,1.93.14.19.29.37.45.55,1.96.83,4.06,1.05,6.14,1.33.27-.05.56-.06.86-.06,1.17,3.77,4.47,5.56,7.58,7.51.06-.02.12-.04.18-.06-.02.38.14.69.47.93.16.03.32.02.48.02-.38,1.33.45,2.36.99,3.43,2.55,4.99,4.12,10.18,3.43,15.86.11.2.22.38.34.54-1.66.76-1.35,2.07-.92,3.4Z"/>
        <path class="cls-2" d="m344.4,54.73c2.32-1.1,4.93-1.73,6.57-3.95,1.19-1.8,2.96-2.63,5.03-2.92,3.2.37,5.13-1.29,6.43-3.94,3.8,1,5.94-2.06,8.61-3.79,3.75-1.66,5.32-4.16,3.14-8.11-1.03-1.7-2.06-3.41-3.1-5.11-.88-1.2-2.06-2.24-1.93-3.93-.43-.64-.85-1.28-1.28-1.92,0,0,0,0,0,0t0,0c-.32-1.25-1.29-2.33-.95-3.74-2.42-2.21-2.7-5.4-3.74-8.24.11-.74-.19-1.07-.84-1.07.08-.12.17-.23.22-.37.3-2.31-.98-3.95-2.36-5.55-.06-.33-.12-.66-.18-1h-8c.01,2.73,1,5.06,2.88,7.02.41.98-.5,2.39,1,3.01.28,1.86,1.3,3.38,2.29,4.91,1.65,6.61,5.32,12.24,8.76,17.99-.82,3.04-4.91,2.15-5.95,4.92-.81.06-1.78-.15-2.41.21-8.57,4.85-17.09,9.78-25.62,14.69-1.65,1.01-3.31,2.02-4.96,3.03-3.98,1.9-7.45,4.44-10.09,8.01-.33-.01-.64.05-.94.18-2.68.07-3.21,2.78-4.96,4-3.17-.34-4.69,2.47-7.03,3.7-2.28.46-4.25,1.53-6.01,3.01-2.41,1.55-5.18,2.6-7,4.99-2.47.39-3.73,2.27-5.07,4.06-.32-.02-.62.05-.9.18-3.01.61-4.56,3.36-7.03,4.75-1.66,1-3.32,1.99-4.98,2.99-4.69,2.96-9.83,5.24-13.95,9.07-4.62,3.1-9.42,5.98-13.81,9.38-3.07,2.38-4.82,2.15-6.12-1.46-.43-.96.3-2.32-1.05-2.96-2.2-8.58-5.92-16.37-11.97-22.95-2.16-4.63-5.05-8.71-8.99-12.02-.61-2.55-2.76-4.21-3.83-6.39-1.08-2.21-4.58-3.2-3.45-6.51,5.69-6,12.85-10.16,19.28-15.23,8.72-6.87,17.69-13.42,26.76-19.83,3.82-2.7,8.22-4.87,11.2-8.72,1.01-.29,2.37.4,2.96-1.06,1.01-.34,1.69-1.02,2.09-1.99,1.01-.66,2.02-1.31,3.03-1.97,0,0,0,0,0,0,2.19.21,1.81-2.1,2.93-2.95.78-.15,1.75.05,2.05-1.04,2.92-.83,4.7-3.22,6.89-5.05h-6c.02.29,0,.59-.05.88-1.64.13-2.88.99-3.95,2.15h0s0,0,0,0c-2.67,1.97-5.85,3.23-8.06,5.83-1.25.27-2.85.02-2.98,1.97-.61.18-1.3.24-1.83.56-13.14,8.03-25.28,17.47-37.68,26.55-2.73,2-5.35,5.09-8.31,5.49-2.08.28-3.27-4.09-4.7-6.51-.88-1.49-2.21-2.7-3.34-4.04-3.67-5.44-6.81-11.35-11.19-16.14-2.89-3.15-1.45-3.17,1.07-4.05,2.98-1.04,6.29-.94,9.04-2.71,5.1-.04,10.01-1.32,14.66-3.13,6.38-2.49,13.55-2.71,19.32-6.85h-14c-.15.78-.78.8-1.41,1.01-5.42,1.86-11.33,1.74-16.61,4.15-6.5.31-12.65,2.46-18.98,3.66-.93.41-1.85.82-2.78,1.23-1.86,2.34-1.97,4.36,1.09,5.79.57.19.77.55.56,1.13,1.48,4.59,4.59,7.95,8.24,10.92,1.3.69,1.09,2.74,2.78,3.08.11.62.22,1.25.34,1.87.75,2.98,2.56,5.2,4.99,6.98.96.32.79,1.16.86,1.89.61,2.59,2.06,4.81,3.08,7.22-1.37,1.02-2.75,2.03-4.12,3.05-4.54,1.66-5.6,3.04-4.66,6.6-.09.06-.18.15-.26.31-.51,1.33.75,1.91,1.2,2.83,2.53,3.38,5.06,6.75,7.59,10.13,1.02,1.35,2.03,2.69,3.05,4.04,2.32,3.65,5.46,6.78,7.15,10.85.62.35,1.24.69,1.86,1.04-.47,2.18,2.54,2.79,2.21,4.9,1.06,4.1,2.83,7.85,5.66,11.04,1.63.87.51,3.12,2.05,4.04.1.33.2.67.29,1,.34,1.62.69,3.23,1.03,4.85-.28,2.77.08,4.98,3.77,4.22,2.7,1.67,4.9.59,6.96-1.26,4.75-4.01,11.28-5.55,15.13-10.81,1.88-.16,3.16-1.53,4.72-2.3,4.11-2.04,6.9-6.39,11.92-6.81.42-.63.85-1.26,1.27-1.89,1.2-.34,3.17.56,3.03-1.9.98-.4,1.95-.81,2.93-1.21,3.53-3.12,8.09-4.97,11.05-8.8,2.04.26,2.8-2.44,4.87-2.09.07-.3.15-.61.23-.91,1.24.3,1.9-.73,2.81-1.2.03-.27.07-.54.14-.81,2.72-.15,4.92-1.5,7.08-2.98.36-.37.72-.73,1.07-1.1.9.31,1.8.55,2.69-.15-.61-1.98,2.6-1.76,2.13-3.67.66-.14.87.28.98.81,1.17-.29,1.18-1.37,1.53-2.22.3-.03.6-.04.93,0,2.42-.35,4.41-1.32,5.41-3.73.83-1.16,1.58-2.41,3.1-2.8,1.29-.61,2.02-2.16,3.59-2.3.08.1.17.2.26.3,4.02-.31,6.72-2.87,9.41-5.48-.04-.26-.05-.46-.06-.63.49-.03,1.02.01,1.42-.23.32.17.6.26.73-.01Zm15.63-43.62s0-.03-.01-.04c0,.01.01.02.02.03,0,0,0,0,0,.01Z"/>
        <path class="cls-2" d="m816.93,714.17s0,0,0-.01c0,0-.01,0-.02,0h0Z"/>
        <path class="cls-2" d="m105.09,274.33s-.01,0-.02,0c0,0,0,0,0,0h.02Z"/>
        <path class="cls-2" d="m105.08,274.34s0,0,.01,0c0,0,0-.01,0-.02,0,0-.02,0-.02,0Z"/>
        <path class="cls-2" d="m486.64,667.22c-4.97-1.74-9.66-4.32-14.98-4.96-3.07-.37-4.08-2.15-3.81-4.98.21-3.37-.27-6.52-2.96-8.93-.66-3.2-2.75-4.65-5.89-4.84-3.28,1.41-7.48.34-10.01,3.73-.74.17-1.7-.13-1.99.96-1.06.41-2.4.54-3.15,1.28-3.58,3.49-7.36,2.98-11.73,1.59-6.91-2.2-14.03-3.75-21.07-5.58-1.94-.16-3.04-1.18-3.23-3.13.77-1.63,2.28-.76,3.46-1.03.95-.22,2.38.81,2.75-.95.44-2.08-1.43-2.4-2.6-2.83-3.02-1.13-5.68.47-7.05,2.7-1.22,1.98-2.63,2.06-4.35,2.31-1.46.21-2.38-1.63-3.94-1.04-2.02-.49-4.05-.99-6.07-1.48-1.06-.26-2.27.08-2.39,1-.09.64.91,1.86,1.66,2.11,2.55.83,5.19,1.35,7.8,1.98,1.2.71,2.36,1.61,3.9,1.02.31.12.63.2.96.23.03.33.11.64.25.93.33,4.04-1.6,8.39,1.67,12.02,3.3,8.37,5.79,10.11,14.13,9.84,2.47.51,4.93.95,7.13-.81,2.89-1.42,5.86-2.85,7.94-5.31,3.56-4.19,7.64-5.85,12.92-3.74,3.89,1.32,7.74,2.76,11.68,3.91,2.16.63.16,1.34.24,1.98,0,0,0,0,0,0-2.62,2.88-5.25,5.75-7.86,8.63-1.25,1.38-1.58,3.01-.35,4.45,1.41,1.66,2.63.75,4.17-.34,2.77-1.96,5.02-4.19,7.08-6.92,1.74-2.29,3.28-6.04,7.5-4.72,5.53,1.74,11.17,3.25,16.46,5.56,2.11.92,4.41,2.46,5.45.37,1.34-2.67-1.3-4.15-3.74-5.01Zm-63.88-3.62c-.18.22-.35.44-.49.67-4.87-1.19-10.13-1.33-13.89-5.41-.07.1-.14.18-.21.25,1-3.14.52-6.15-.47-9.11,7.43,2.36,15.33,3.31,22.67,7.16-1.98,3.11-5.35,4.17-7.62,6.44Zm39.79-6.2c-4.32.52-8.05-2.7-12.42-1.96-.06.02-.11.05-.17.08-.42-1.27-1.44-2.39-1.36-3.79,1.01.37,1.89.42,2.3-.68,1.27.26,2.45.22,3.29-.99.42-.27-.14-.53-.34-.79.12.03.23.06.31.1,1.72-.68,3.43-.85,5.14-.23.13.24.24.49.33.74.39,1.05,1.04,1.75,2.22,1.75-.96,1.51-1.01,2.83.57,3.83.03.14.05.28.1.42.02.37.3.46.6.5.01.33.03.65.04.98-.21.02-.42.02-.59.04Z"/>
      </g>
    </g>
  </g>
</svg>