<svg xmlns="http://www.w3.org/2000/svg"  viewBox="0 0 64 64" width="64px" height="64px"><path fill="#548500" d="M54,56H10c-2.209,0-4-1.791-4-4V32c0-2.209,1.791-4,4-4h44c2.209,0,4,1.791,4,4v20	C58,54.209,56.209,56,54,56z"/><path fill="#fff" d="M10,28c-2.209,0-4,1.791-4,4v19c2.762,0,5-2.238,5-5v-9.05	c2.08-0.233,3.716-1.869,3.95-3.95H17c2.762,0,5-2.238,5-5H10z" opacity=".3"/><path fill="none" stroke="#fff" stroke-linecap="round" stroke-linejoin="round" stroke-miterlimit="10" stroke-width="3" d="M9.5,38.5v-6c0-0.552,0.448-1,1-1h5"/><path fill="#98c900" d="M49.05,33H14.95c-0.233,2.08-1.869,3.716-3.95,3.95V47.05c2.08,0.233,3.716,1.869,3.95,3.95H49.05	c0.233-2.08,1.869-3.716,3.95-3.95V36.95C50.92,36.716,49.284,35.08,49.05,33z"/><ellipse cx="32" cy="42" fill="#548500" rx="6" ry="7"/><circle cx="16" cy="42" r="2" fill="#548500"/><circle cx="48" cy="42" r="2" fill="#548500"/><path d="M53,38v9.05c-2.08,0.233-3.716,1.869-3.95,3.95H34c-2.762,0-5,2.238-5,5h25c2.209,0,4-1.791,4-4V33	C55.238,33,53,35.238,53,38z" opacity=".15"/><ellipse cx="32" cy="61" opacity=".3" rx="23" ry="3"/><polyline fill="none" stroke="#9c34c2" stroke-linecap="round" stroke-linejoin="round" stroke-miterlimit="10" stroke-width="5" points="47.5,12.5 37.5,21.5 23.5,14.5 14.5,21.5"/><path fill="#9c34c2" d="M48.469,19.425l-8.015-8.006c-1.197-1.196-0.537-3.204,1.114-3.386l8.998-0.993	c1.293-0.143,2.413,0.975,2.271,2.269l-0.984,8.999C51.673,19.958,49.666,20.621,48.469,19.425z"/></svg>